<svg>
  <symbol id="arrow-down-thin" viewBox="0 0 20 20" fill="none" xmlns="http://www.w3.org/2000/svg">
    <path fill-rule="evenodd" clip-rule="evenodd" d="M10.4065 12.975C10.2933 13.072 10.149 13.1254 9.99987 13.1254C9.85071 13.1254 9.70647 13.072 9.5932 12.975L3.75987 7.97497C3.69749 7.92156 3.64624 7.8564 3.60905 7.78319C3.57186 7.70998 3.54945 7.63016 3.5431 7.54829C3.53676 7.46642 3.5466 7.3841 3.57207 7.30603C3.59754 7.22797 3.63813 7.15568 3.69154 7.0933C3.74494 7.03092 3.81011 6.97968 3.88332 6.94248C3.95653 6.90529 4.03635 6.88288 4.11822 6.87654C4.20009 6.87019 4.2824 6.88003 4.36047 6.9055C4.43854 6.93097 4.51082 6.97157 4.5732 7.02497L9.99987 11.6775L15.4265 7.02664C15.4883 6.97005 15.5609 6.92647 15.6398 6.89847C15.7188 6.87048 15.8026 6.85866 15.8862 6.8637C15.9699 6.86874 16.0516 6.89055 16.1267 6.92783C16.2017 6.9651 16.2685 7.01709 16.323 7.08069C16.3776 7.14429 16.4188 7.21821 16.4442 7.29805C16.4696 7.37789 16.4787 7.46203 16.4709 7.54545C16.4632 7.62888 16.4387 7.70989 16.399 7.78368C16.3593 7.85747 16.3052 7.92252 16.2399 7.97497L10.4065 12.975Z" fill="currentColor" fill-opacity="0.6"/>
  </symbol>
  <symbol id="arrow-down" viewBox="0 0 16 10" fill="none" xmlns="http://www.w3.org/2000/svg">
    <path fill-rule="evenodd" clip-rule="evenodd" d="M16 2L8 10L-6.99382e-07 2L2 1.22392e-06L8 6L14 1.74846e-07L16 2Z" fill="currentColor"/>
  </symbol>
  <symbol id='search' viewBox="0 0 24 24" fill="none" xmlns="http://www.w3.org/2000/svg">
    <path d="M17 17L21 21M3 11C3 13.1217 3.84285 15.1566 5.34315 16.6569C6.84344 18.1571 8.87827 19 11 19C13.1217 19 15.1566 18.1571 16.6569 16.6569C18.1571 15.1566 19 13.1217 19 11C19 8.87827 18.1571 6.84344 16.6569 5.34315C15.1566 3.84285 13.1217 3 11 3C8.87827 3 6.84344 3.84285 5.34315 5.34315C3.84285 6.84344 3 8.87827 3 11Z" stroke="currentColor" stroke-width="1.5" stroke-linecap="round" stroke-linejoin="round"/>
  </symbol>

  <symbol id="plus" xmlns="http://www.w3.org/2000/svg" viewBox="0 0 20 20" fill="none">
    <path d="M15.7452 10H4.25476M10 4.25476V15.7452" stroke="currentColor" stroke-width="1.5" stroke-linecap="round" stroke-linejoin="round"/>
  </symbol>
  <symbol id="close" xmlns="http://www.w3.org/2000/svg" viewBox="0 0 24 24" fill="none">
    <path d="M16.875 16.875L7.125 7.125M16.875 7.125L7.125 16.875" stroke="currentColor" stroke-width="1.5" stroke-linecap="round" stroke-linejoin="round"/>
  </symbol>
  <symbol id="upload" viewBox="0 0 24 26" fill="none" xmlns="http://www.w3.org/2000/svg">
    <path fill-rule="evenodd" clip-rule="evenodd" d="M12 25.5C12.3315 25.5 12.6495 25.3683 12.8839 25.1339C13.1183 24.8995 13.25 24.5815 13.25 24.25L13.25 21.75L20.75 21.75C21.413 21.75 22.0489 21.4866 22.5178 21.0178C22.9866 20.5489 23.25 19.913 23.25 19.25L23.25 3C23.25 2.33696 22.9866 1.70107 22.5178 1.23223C22.0489 0.763393 21.413 0.5 20.75 0.5L3.25 0.499998C2.58696 0.499998 1.95108 0.763392 1.48224 1.23223C1.0134 1.70107 0.750002 2.33696 0.750002 3L0.750001 19.25C0.75 19.913 1.01339 20.5489 1.48223 21.0178C1.95107 21.4866 2.58696 21.75 3.25 21.75L10.75 21.75L10.75 24.25C10.75 24.5815 10.8817 24.8995 11.1161 25.1339C11.3505 25.3683 11.6685 25.5 12 25.5ZM10.75 21.75L10.75 10.715L8.465 13C8.23062 13.2345 7.91265 13.3664 7.58107 13.3665C7.24948 13.3666 6.93143 13.235 6.69688 13.0006C6.46233 12.7662 6.33049 12.4483 6.33037 12.1167C6.33026 11.7851 6.46187 11.4671 6.69625 11.2325L10.8963 7.03375C11.1892 6.74102 11.5865 6.57658 12.0006 6.57658C12.4148 6.57658 12.812 6.74102 13.105 7.03375L17.3038 11.2325C17.4198 11.3486 17.5119 11.4865 17.5746 11.6382C17.6374 11.7899 17.6697 11.9525 17.6696 12.1167C17.6696 12.2809 17.6372 12.4434 17.5743 12.5951C17.5114 12.7468 17.4193 12.8846 17.3031 13.0006C17.187 13.1167 17.0491 13.2087 16.8974 13.2715C16.7457 13.3343 16.5831 13.3666 16.4189 13.3665C16.2547 13.3664 16.0922 13.334 15.9405 13.2712C15.7889 13.2083 15.6511 13.1161 15.535 13L13.25 10.715L13.25 21.75L10.75 21.75Z" fill="currentColor"/>
  </symbol>
  <symbol id="ellipsis" viewBox="0 0 18 18" fill="none" xmlns="http://www.w3.org/2000/svg">
    <circle cx="2.86073" cy="8.99999" r="1.84218" transform="rotate(-90 2.86073 8.99999)" stroke="transparent" fill="currentColor"/>
    <circle cx="9.00038" cy="8.99999" r="1.84218" transform="rotate(-90 9.00038 8.99999)" stroke="transparent" fill="currentColor"/>
    <circle cx="15.1391" cy="8.99999" r="1.84218" transform="rotate(-90 15.1391 8.99999)" stroke="transparent" fill="currentColor"/>
  </symbol>
  <symbol id="copy" viewBox="0 0 20 20" fill="none" xmlns="http://www.w3.org/2000/svg">
    <path d="M17.3575 10.7175C17.5 10.3733 17.5 9.93583 17.5 9.0625C17.5 8.18917 17.5 7.75167 17.3575 7.4075C17.2633 7.17994 17.1251 6.97318 16.951 6.79902C16.7768 6.62487 16.5701 6.48673 16.3425 6.3925C15.9983 6.25 15.5608 6.25 14.6875 6.25H9.25C8.2 6.25 7.675 6.25 7.27417 6.45417C6.92105 6.63398 6.63398 6.92105 6.45417 7.27417C6.25 7.67417 6.25 8.19917 6.25 9.25V14.6875C6.25 15.5608 6.25 15.9983 6.3925 16.3425C6.58333 16.8017 6.94833 17.1675 7.4075 17.3575C7.75167 17.5 8.18917 17.5 9.0625 17.5C9.93583 17.5 10.3733 17.5 10.7175 17.3575M17.3575 10.7175C17.2633 10.9451 17.1251 11.1518 16.951 11.326C16.7768 11.5001 16.5701 11.6383 16.3425 11.7325C15.9983 11.875 15.5608 11.875 14.6875 11.875C13.8142 11.875 13.3767 11.875 13.0325 12.0175C12.8049 12.1117 12.5982 12.2499 12.424 12.424C12.2499 12.5982 12.1117 12.8049 12.0175 13.0325C11.875 13.3767 11.875 13.8142 11.875 14.6875C11.875 15.5608 11.875 15.9983 11.7325 16.3425C11.6383 16.5701 11.5001 16.7768 11.326 16.951C11.1518 17.1251 10.9451 17.2633 10.7175 17.3575M17.3575 10.7175C16.9093 12.2633 16.0848 13.6738 14.9577 14.8228C13.8306 15.9717 12.4361 16.8231 10.8992 17.3008L10.7175 17.3575M13.75 6.25V5.5C13.75 4.45 13.75 3.925 13.5458 3.52417C13.3662 3.17118 13.0795 2.88412 12.7267 2.70417C12.325 2.5 11.8 2.5 10.75 2.5H5.5C4.45 2.5 3.925 2.5 3.52417 2.70417C3.17105 2.88398 2.88398 3.17105 2.70417 3.52417C2.5 3.92417 2.5 4.44917 2.5 5.5V10.75C2.5 11.8 2.5 12.325 2.70417 12.7258C2.88417 13.0792 3.17083 13.3658 3.52417 13.5458C3.92417 13.75 4.45 13.75 5.50083 13.75H6.25" stroke="currentColor" stroke-width="1.5" stroke-linecap="round" stroke-linejoin="round"/>
  </symbol>
  <symbol id="delete" viewBox="0 0 20 20" fill="none" xmlns="http://www.w3.org/2000/svg">
    <path d="M5.00033 15.8333C5.00033 16.75 5.75033 17.5 6.66699 17.5H13.3337C14.2503 17.5 15.0003 16.75 15.0003 15.8333V5.83333H5.00033V15.8333ZM15.8337 3.33333H12.917L12.0837 2.5H7.91699L7.08366 3.33333H4.16699V5H15.8337V3.33333Z" fill="currentColor"/>
  </symbol>
  <symbol id="pencil" viewBox="0 0 14 14" fill="none" xmlns="http://www.w3.org/2000/svg">
    <path d="M1.68848 10.0709V11.7809C1.68848 11.9384 1.81223 12.0622 1.96973 12.0622H3.67973C3.75285 12.0622 3.82598 12.034 3.8766 11.9778L10.0191 5.84092L7.90973 3.73154L1.77285 9.86842C1.7166 9.92467 1.68848 9.99217 1.68848 10.0709ZM11.6504 4.20967C11.7025 4.15763 11.7439 4.09581 11.7721 4.02777C11.8003 3.95972 11.8149 3.88677 11.8149 3.8131C11.8149 3.73943 11.8003 3.66649 11.7721 3.59844C11.7439 3.53039 11.7025 3.46858 11.6504 3.41654L10.3341 2.10029C10.2821 2.04815 10.2203 2.00677 10.1522 1.97855C10.0842 1.95032 10.0112 1.93579 9.93754 1.93579C9.86387 1.93579 9.79092 1.95032 9.72287 1.97855C9.65483 2.00677 9.59302 2.04815 9.54098 2.10029L8.5116 3.12967L10.621 5.23904L11.6504 4.20967Z" fill="currentColor"/>
  </symbol>
  <symbol id="checked" viewBox="0 0 21 21" fill="none" xmlns="http://www.w3.org/2000/svg">
    <path d="M8.00045 13.9749L5.10878 11.0833C4.95297 10.9275 4.74164 10.8399 4.52128 10.8399C4.30092 10.8399 4.08959 10.9275 3.93378 11.0833C3.77797 11.2391 3.69043 11.4504 3.69043 11.6708C3.69043 11.7799 3.71192 11.8879 3.75367 11.9887C3.79543 12.0895 3.85663 12.1811 3.93378 12.2583L7.41711 15.7416C7.74211 16.0666 8.26711 16.0666 8.59211 15.7416L17.4088 6.92494C17.5646 6.76913 17.6521 6.5578 17.6521 6.33744C17.6521 6.11709 17.5646 5.90576 17.4088 5.74994C17.253 5.59413 17.0416 5.50659 16.8213 5.50659C16.6009 5.50659 16.3896 5.59413 16.2338 5.74994L8.00045 13.9749Z" fill="currentColor"/>
  </symbol>
  <symbol id="people" viewBox="0 0 28 23" fill="none" xmlns="http://www.w3.org/2000/svg">
    <path d="M8.66667 11C10.0812 11 11.4377 10.4381 12.4379 9.43794C13.4381 8.43775 14 7.08119 14 5.66671C14 4.25222 13.4381 2.89566 12.4379 1.89547C11.4377 0.895277 10.0812 0.333374 8.66667 0.333374C7.25218 0.333374 5.89562 0.895277 4.89543 1.89547C3.89524 2.89566 3.33333 4.25222 3.33333 5.66671C3.33333 7.08119 3.89524 8.43775 4.89543 9.43794C5.89562 10.4381 7.25218 11 8.66667 11ZM20.6667 11C21.7275 11 22.7449 10.5786 23.4951 9.82847C24.2452 9.07832 24.6667 8.06091 24.6667 7.00004C24.6667 5.93917 24.2452 4.92176 23.4951 4.17161C22.7449 3.42147 21.7275 3.00004 20.6667 3.00004C19.6058 3.00004 18.5884 3.42147 17.8382 4.17161C17.0881 4.92176 16.6667 5.93917 16.6667 7.00004C16.6667 8.06091 17.0881 9.07832 17.8382 9.82847C18.5884 10.5786 19.6058 11 20.6667 11ZM2.5 13C1.83696 13 1.20107 13.2634 0.732233 13.7323C0.263392 14.2011 0 14.837 0 15.5V16.3334C0 16.3334 0 22.3334 8.66667 22.3334C17.3333 22.3334 17.3333 16.3334 17.3333 16.3334V15.5C17.3333 14.837 17.0699 14.2011 16.6011 13.7323C16.1323 13.2634 15.4964 13 14.8333 13H2.5ZM17.116 20.3927C18.0333 20.7647 19.1953 21 20.666 21C27.666 21 27.666 15.6667 27.666 15.6667V15.5C27.666 14.8371 27.4027 14.2013 26.934 13.7325C26.4653 13.2637 25.8296 13.0002 25.1667 13H17.738C18.3375 13.6949 18.6667 14.5824 18.6653 15.5V16.3634L18.6647 16.4014C18.6608 16.5308 18.6519 16.66 18.638 16.7887C18.6049 17.0863 18.5513 17.3812 18.4773 17.6714C18.2249 18.666 17.7605 19.5942 17.116 20.3927Z" fill="currentColor"/>
  </symbol>
  <symbol id="people-plus" viewBox="0 0 29 27" fill="none" xmlns="http://www.w3.org/2000/svg">
    <path d="M8.7999 10.4C10.179 10.4 11.5017 9.85214 12.4769 8.87696C13.452 7.90177 13.9999 6.57913 13.9999 5.2C13.9999 3.82087 13.452 2.49823 12.4769 1.52304C11.5017 0.547855 10.179 0 8.7999 0C7.42078 0 6.09814 0.547855 5.12295 1.52304C4.14776 2.49823 3.5999 3.82087 3.5999 5.2C3.5999 6.57913 4.14776 7.90177 5.12295 8.87696C6.09814 9.85214 7.42078 10.4 8.7999 10.4ZM25.1999 6.4C25.1999 7.46087 24.7785 8.47828 24.0283 9.22843C23.2782 9.97857 22.2608 10.4 21.1999 10.4C20.139 10.4 19.1216 9.97857 18.3715 9.22843C17.6213 8.47828 17.1999 7.46087 17.1999 6.4C17.1999 5.33913 17.6213 4.32172 18.3715 3.57157C19.1216 2.82143 20.139 2.4 21.1999 2.4C22.2608 2.4 23.2782 2.82143 24.0283 3.57157C24.7785 4.32172 25.1999 5.33913 25.1999 6.4ZM12.3999 19.2C12.3999 16.4736 13.6399 14.0352 15.5887 12.4208C15.105 12.144 14.5572 11.9989 13.9999 12H3.5999C2.75121 12 1.93728 12.3371 1.33716 12.9373C0.737044 13.5374 0.399902 14.3513 0.399902 15.2C0.399902 15.2 0.399902 21.6 8.7999 21.6C10.3247 21.6 11.5727 21.3888 12.5935 21.0448C12.4644 20.4384 12.3995 19.82 12.3999 19.2ZM28.3999 19.2C28.3999 21.1096 27.6413 22.9409 26.2911 24.2912C24.9408 25.6414 23.1095 26.4 21.1999 26.4C19.2903 26.4 17.459 25.6414 16.1087 24.2912C14.7585 22.9409 13.9999 21.1096 13.9999 19.2C13.9999 17.2904 14.7585 15.4591 16.1087 14.1088C17.459 12.7586 19.2903 12 21.1999 12C23.1095 12 24.9408 12.7586 26.2911 14.1088C27.6413 15.4591 28.3999 17.2904 28.3999 19.2ZM21.9999 16C21.9999 15.7878 21.9156 15.5843 21.7656 15.4343C21.6156 15.2843 21.4121 15.2 21.1999 15.2C20.9877 15.2 20.7842 15.2843 20.6342 15.4343C20.4842 15.5843 20.3999 15.7878 20.3999 16V18.4H17.9999C17.7877 18.4 17.5842 18.4843 17.4342 18.6343C17.2842 18.7843 17.1999 18.9878 17.1999 19.2C17.1999 19.4122 17.2842 19.6157 17.4342 19.7657C17.5842 19.9157 17.7877 20 17.9999 20H20.3999V22.4C20.3999 22.6122 20.4842 22.8157 20.6342 22.9657C20.7842 23.1157 20.9877 23.2 21.1999 23.2C21.4121 23.2 21.6156 23.1157 21.7656 22.9657C21.9156 22.8157 21.9999 22.6122 21.9999 22.4V20H24.3999C24.6121 20 24.8156 19.9157 24.9656 19.7657C25.1156 19.6157 25.1999 19.4122 25.1999 19.2C25.1999 18.9878 25.1156 18.7843 24.9656 18.6343C24.8156 18.4843 24.6121 18.4 24.3999 18.4H21.9999V16Z" fill="currentColor"/>
  </symbol>
  <symbol id="user" viewBox="0 0 14 16" fill="none" xmlns="http://www.w3.org/2000/svg">
    <path d="M7 8C8.04429 8 9.04581 7.58516 9.78423 6.84673C10.5227 6.10831 10.9375 5.10679 10.9375 4.0625C10.9375 3.01821 10.5227 2.01669 9.78423 1.27827C9.04581 0.539843 8.04429 0.125 7 0.125C5.95571 0.125 4.95419 0.539843 4.21577 1.27827C3.47734 2.01669 3.0625 3.01821 3.0625 4.0625C3.0625 5.10679 3.47734 6.10831 4.21577 6.84673C4.95419 7.58516 5.95571 8 7 8ZM2.21875 9.125C1.69661 9.125 1.19585 9.33242 0.826634 9.70163C0.457421 10.0708 0.25 10.5716 0.25 11.0938V11.375C0.25 12.7211 1.10669 13.8596 2.32281 14.6336C3.54569 15.4121 5.20113 15.875 7 15.875C8.79887 15.875 10.4538 15.4121 11.6772 14.6336C12.8933 13.8596 13.75 12.7211 13.75 11.375V11.0938C13.75 10.5716 13.5426 10.0708 13.1734 9.70163C12.8042 9.33242 12.3034 9.125 11.7812 9.125H2.21875Z" fill="currentColor"/>
  </symbol>
  <symbol id="calendar" viewBox="0 0 14 16" fill="none" xmlns="http://www.w3.org/2000/svg">
    <path d="M10 8.75H7.75C7.3375 8.75 7 9.0875 7 9.5V11.75C7 12.1625 7.3375 12.5 7.75 12.5H10C10.4125 12.5 10.75 12.1625 10.75 11.75V9.5C10.75 9.0875 10.4125 8.75 10 8.75ZM10 1.25V2H4V1.25C4 0.8375 3.6625 0.5 3.25 0.5C2.8375 0.5 2.5 0.8375 2.5 1.25V2H1.75C0.9175 2 0.2575 2.675 0.2575 3.5L0.25 14C0.25 14.3978 0.408035 14.7794 0.68934 15.0607C0.970644 15.342 1.35218 15.5 1.75 15.5H12.25C13.075 15.5 13.75 14.825 13.75 14V3.5C13.75 2.675 13.075 2 12.25 2H11.5V1.25C11.5 0.8375 11.1625 0.5 10.75 0.5C10.3375 0.5 10 0.8375 10 1.25ZM11.5 14H2.5C2.0875 14 1.75 13.6625 1.75 13.25V5.75H12.25V13.25C12.25 13.6625 11.9125 14 11.5 14Z" fill="currentColor"/>
  </symbol>
  <symbol id="priority" viewBox="0 0 14 10" fill="none" xmlns="http://www.w3.org/2000/svg">
    <path d="M0.25 9.5H4.75V8H0.25V9.5ZM0.25 0.5V2H13.75V0.5H0.25ZM0.25 5.75H9.25V4.25H0.25V5.75Z" fill="currentColor"/>
  </symbol>
  <symbol id="star" viewBox="0 0 18 17" fill="none" xmlns="http://www.w3.org/2000/svg">
    <path d="M16.9999 7.39001C17.1858 7.25158 17.3236 7.05845 17.3941 6.83772C17.4647 6.61698 17.4643 6.37971 17.3932 6.15917C17.3221 5.93863 17.1837 5.74587 16.9975 5.60794C16.8113 5.47 16.5866 5.3938 16.3549 5.39001L11.8549 5.22001C11.8328 5.21848 11.8116 5.21059 11.7938 5.19729C11.7761 5.18398 11.7626 5.16583 11.7549 5.14501L10.1999 0.945012C10.1218 0.731332 9.97989 0.546821 9.79342 0.41646C9.60696 0.2861 9.38494 0.216187 9.15742 0.216187C8.92991 0.216187 8.70788 0.2861 8.52142 0.41646C8.33495 0.546821 8.19305 0.731332 8.11492 0.945012L6.56492 5.16001C6.55726 5.18083 6.54374 5.19898 6.526 5.21229C6.50826 5.22559 6.48705 5.23349 6.46492 5.23501L1.96492 5.40501C1.73322 5.4088 1.50852 5.485 1.32232 5.62294C1.13611 5.76087 0.99775 5.95363 0.926625 6.17417C0.8555 6.39471 0.855181 6.63198 0.925713 6.85272C0.996244 7.07345 1.13409 7.26658 1.31992 7.40501L4.84992 10.18C4.86759 10.1939 4.88079 10.2127 4.8879 10.234C4.89501 10.2553 4.89571 10.2783 4.88992 10.3L3.67492 14.605C3.61196 14.8242 3.61806 15.0575 3.69239 15.2732C3.76672 15.4888 3.90567 15.6763 4.09035 15.8102C4.27502 15.944 4.49644 16.0177 4.7245 16.0213C4.95255 16.0248 5.17617 15.9581 5.36492 15.83L9.09492 13.33C9.1133 13.3173 9.13509 13.3105 9.15742 13.3105C9.17975 13.3105 9.20155 13.3173 9.21992 13.33L12.9499 15.83C13.1361 15.9624 13.3589 16.0336 13.5874 16.0336C13.8159 16.0336 14.0387 15.9624 14.2249 15.83C14.4096 15.6974 14.5487 15.5108 14.623 15.2959C14.6974 15.081 14.7033 14.8484 14.6399 14.63L13.4149 10.31C13.4084 10.2883 13.4088 10.2652 13.4159 10.2437C13.4231 10.2222 13.4367 10.2035 13.4549 10.19L16.9999 7.39001Z" fill="currentColor"/>
  </symbol>
  <symbol id="news" viewBox="0 0 22 18" fill="none" xmlns="http://www.w3.org/2000/svg">
    <path d="M17.8567 1.92859V14.5714C17.8565 14.6785 17.8964 14.7818 17.9686 14.861C18.0407 14.9401 18.1399 14.9894 18.2466 14.9991C18.3532 15.0087 18.4596 14.9781 18.5449 14.9133C18.6301 14.8484 18.6879 14.754 18.707 14.6486L18.7139 14.5714V3.00002H19.7853C20.1617 3.00003 20.5244 3.14159 20.8013 3.3966C21.0783 3.65161 21.2492 4.00142 21.2802 4.37659L21.2853 4.50002V14.7857C21.2853 15.4973 21.0131 16.1819 20.5244 16.6991C20.0358 17.2163 19.3677 17.5269 18.6573 17.5672L18.4996 17.5714H3.49958C2.78803 17.5715 2.10344 17.2993 1.58624 16.8106C1.06904 16.3219 0.758437 15.6539 0.718153 14.9434L0.713867 14.7857V1.92859C0.713881 1.55214 0.855442 1.18946 1.11045 0.912539C1.36546 0.63562 1.71527 0.464708 2.09044 0.433732L2.21387 0.428589H16.3567C16.7332 0.428603 17.0959 0.570164 17.3728 0.825172C17.6497 1.08018 17.8206 1.42999 17.8516 1.80516L17.8567 1.92859ZM7.35415 8.1463H5.21387C4.83742 8.14632 4.47474 8.28788 4.19782 8.54288C3.9209 8.79789 3.74999 9.1477 3.71901 9.52287L3.71387 9.6463V11.7857C3.71388 12.1622 3.85544 12.5249 4.11045 12.8018C4.36546 13.0787 4.71527 13.2496 5.09044 13.2806L5.21387 13.2857H7.35415C7.73074 13.2857 8.09353 13.144 8.37047 12.8888C8.64741 12.6336 8.81824 12.2836 8.84901 11.9083L8.8533 11.7857V9.6463C8.8535 9.26971 8.71203 8.90681 8.457 8.62971C8.20197 8.35261 7.85204 8.18158 7.47672 8.15059L7.35415 8.1463ZM14.2139 12H11.2139L11.1264 12.006C10.9726 12.0272 10.8316 12.1033 10.7295 12.2204C10.6274 12.3375 10.5712 12.4876 10.5712 12.6429C10.5712 12.7982 10.6274 12.9483 10.7295 13.0653C10.8316 13.1824 10.9726 13.2586 11.1264 13.2797L11.2139 13.2857H14.2139L14.3013 13.2797C14.4552 13.2586 14.5962 13.1824 14.6982 13.0653C14.8003 12.9483 14.8565 12.7982 14.8565 12.6429C14.8565 12.4876 14.8003 12.3375 14.6982 12.2204C14.5962 12.1033 14.4552 12.0272 14.3013 12.006L14.2139 12ZM5.21387 9.43202H7.35415C7.40231 9.43205 7.44906 9.44831 7.48685 9.47817C7.52464 9.50802 7.55127 9.54974 7.56244 9.59659L7.56844 9.6463V11.7857C7.56836 11.834 7.55198 11.8808 7.52195 11.9186C7.49193 11.9565 7.45002 11.983 7.40301 11.994L7.35415 12H5.21387C5.16559 11.9999 5.11875 11.9836 5.08095 11.9535C5.04315 11.9235 5.01659 11.8816 5.00558 11.8346L4.99958 11.7857V9.6463C4.99947 9.59788 5.01576 9.55084 5.0458 9.51286C5.07584 9.47488 5.11786 9.4482 5.16501 9.43716L5.21387 9.43202ZM14.2139 8.1463H11.2139L11.1264 8.15145C10.9719 8.17192 10.8301 8.24784 10.7274 8.36507C10.6247 8.4823 10.568 8.63286 10.568 8.78873C10.568 8.9446 10.6247 9.09516 10.7274 9.21239C10.8301 9.32962 10.9719 9.40554 11.1264 9.42602L11.2139 9.43202H14.2139L14.3013 9.42602C14.4558 9.40554 14.5976 9.32962 14.7003 9.21239C14.8031 9.09516 14.8597 8.9446 14.8597 8.78873C14.8597 8.63286 14.8031 8.4823 14.7003 8.36507C14.5976 8.24784 14.4558 8.17192 14.3013 8.15145L14.2139 8.1463ZM14.2139 4.28316H4.35672L4.2693 4.28916C4.11543 4.31033 3.97443 4.38649 3.87236 4.50356C3.7703 4.62064 3.71406 4.7707 3.71406 4.92602C3.71406 5.08133 3.7703 5.2314 3.87236 5.34847C3.97443 5.46554 4.11543 5.5417 4.2693 5.56287L4.35672 5.56887H14.2139L14.3013 5.56287C14.4552 5.5417 14.5962 5.46554 14.6982 5.34847C14.8003 5.2314 14.8565 5.08133 14.8565 4.92602C14.8565 4.7707 14.8003 4.62064 14.6982 4.50356C14.5962 4.38649 14.4552 4.31033 14.3013 4.28916L14.2139 4.28316Z" fill="currentColor"/>
  </symbol>
  <symbol id="analytics" viewBox="0 0 20 20" fill="none" xmlns="http://www.w3.org/2000/svg">
    <path fill-rule="evenodd" clip-rule="evenodd" d="M1.464 1.464C0 2.93 0 5.286 0 10C0 14.714 0 17.071 1.464 18.535C2.93 20 5.286 20 10 20C14.714 20 17.071 20 18.535 18.535C20 17.072 20 14.714 20 10C20 5.286 20 2.929 18.535 1.464C17.072 0 14.714 0 10 0C5.286 0 2.929 0 1.464 1.464ZM15.576 8.48C15.6977 8.32662 15.7546 8.13173 15.7345 7.93697C15.7145 7.7422 15.619 7.56301 15.4686 7.43766C15.3182 7.31232 15.1247 7.25076 14.9295 7.26615C14.7344 7.28153 14.5529 7.37264 14.424 7.52L12.627 9.676C12.257 10.121 12.028 10.392 11.841 10.561C11.7924 10.6088 11.7375 10.6498 11.678 10.683L11.667 10.688L11.659 10.684L11.656 10.683C11.5961 10.6498 11.541 10.6088 11.492 10.561C11.305 10.391 11.077 10.121 10.706 9.676L10.414 9.326C10.086 8.931 9.789 8.576 9.513 8.326C9.212 8.054 8.833 7.812 8.333 7.812C7.833 7.812 7.455 8.054 7.153 8.326C6.877 8.576 6.581 8.931 6.253 9.326L4.423 11.52C4.35997 11.5957 4.31246 11.6831 4.2832 11.7772C4.25393 11.8712 4.24348 11.9701 4.25244 12.0682C4.27054 12.2664 4.3666 12.4492 4.5195 12.5765C4.6724 12.7038 4.8696 12.7652 5.06774 12.7471C5.26587 12.729 5.4487 12.6329 5.576 12.48L7.373 10.324C7.743 9.879 7.972 9.608 8.159 9.439C8.20765 9.39124 8.26247 9.35021 8.322 9.317L8.329 9.314L8.333 9.312L8.344 9.317C8.40386 9.35017 8.45902 9.3912 8.508 9.439C8.695 9.609 8.923 9.879 9.294 10.324L9.586 10.674C9.915 11.069 10.211 11.424 10.487 11.674C10.788 11.946 11.167 12.188 11.667 12.188C12.167 12.188 12.545 11.946 12.847 11.674C13.123 11.424 13.419 11.069 13.747 10.674L15.576 8.48Z" fill="currentColor"/>
  </symbol>
  <symbol id="reporting" viewBox="0 0 24 24" fill="none" xmlns="http://www.w3.org/2000/svg">
    <path d="M13.0065 3.08881C12.831 3.08881 12.6885 3.23137 12.6885 3.40705C12.6885 3.42337 12.6954 3.43753 12.6978 3.45337H12.6885V10.9985C12.6885 11.1742 12.831 11.3167 13.0065 11.3167H20.5514V11.3074C20.5672 11.3098 20.5814 11.3167 20.5979 11.3167C20.7734 11.3167 20.9159 11.1742 20.9159 10.9985C20.8708 6.64969 17.3553 3.13417 13.0065 3.08881Z" fill="currentColor"/>
    <path d="M19.0761 12.8304C19.0761 12.6547 18.9338 12.5122 18.7581 12.5122H11.8224C11.738 12.5121 11.6571 12.4786 11.5975 12.4189C11.5379 12.3592 11.5044 12.2783 11.5044 12.1939V5.28363H11.495C11.4974 5.26779 11.5044 5.25363 11.5044 5.23731C11.5044 5.06139 11.3618 4.91907 11.1861 4.91907C11.1785 4.91907 11.1722 4.92291 11.1648 4.92339V4.92123C11.1365 4.92099 11.1084 4.91907 11.0801 4.91907C6.66406 4.91907 3.08398 8.49915 3.08398 12.9151C3.08398 17.3311 6.66406 20.9112 11.0801 20.9112C15.4961 20.9112 19.0761 17.3311 19.0761 12.9151C19.0761 12.8897 19.0749 12.8645 19.0745 12.8388C19.0745 12.8357 19.0761 12.8333 19.0761 12.8304Z" fill="currentColor"/>
  </symbol>
  <symbol id="settings" viewBox="0 0 20 20" fill="none" xmlns="http://www.w3.org/2000/svg">
    <path fill-rule="evenodd" clip-rule="evenodd" d="M7.96514 0.808976C7.76595 0.663308 7.53411 0.568643 7.28989 0.533256C7.04566 0.497869 6.79649 0.522836 6.56414 0.605976C5.47775 1.00396 4.46875 1.58763 3.58214 2.33098C3.3943 2.49046 3.24833 2.6935 3.157 2.92237C3.06566 3.15123 3.03172 3.39898 3.05814 3.64398C3.13314 4.39698 3.00014 5.12398 2.63814 5.74998C2.27714 6.37698 1.71314 6.85598 1.02314 7.16698C0.79749 7.26693 0.599754 7.42063 0.447222 7.61465C0.29469 7.80868 0.192005 8.03711 0.148143 8.27998C-0.0493811 9.41814 -0.0493811 10.5818 0.148143 11.72C0.241143 12.257 0.608143 12.646 1.02314 12.834C1.71314 13.144 2.27714 13.624 2.63914 14.25C3.00014 14.877 3.13314 15.603 3.05814 16.356C3.01314 16.808 3.16514 17.32 3.58214 17.669C4.46874 18.4123 5.47774 18.996 6.56414 19.394C6.79634 19.477 7.04534 19.502 7.28939 19.4666C7.53343 19.4312 7.7651 19.3366 7.96414 19.191C8.57914 18.749 9.27614 18.5 10.0001 18.5C10.7241 18.5 11.4201 18.749 12.0351 19.191C12.4051 19.457 12.9251 19.581 13.4361 19.394C14.5225 18.996 15.5315 18.4123 16.4181 17.669C16.8351 17.32 16.9881 16.809 16.9421 16.356C16.8671 15.603 16.9991 14.876 17.3621 14.25C17.7231 13.623 18.2871 13.145 18.9771 12.834C19.3911 12.647 19.7591 12.257 19.8521 11.72C20.0496 10.5818 20.0496 9.41814 19.8521 8.27998C19.8083 8.03711 19.7056 7.80868 19.5531 7.61465C19.4005 7.42063 19.2028 7.26693 18.9771 7.16698C18.2871 6.85598 17.7231 6.37698 17.3611 5.74998C16.9991 5.12398 16.8671 4.39698 16.9421 3.64398C16.9685 3.39898 16.9345 3.15127 16.8432 2.92242C16.7518 2.69356 16.6059 2.49052 16.4181 2.33098C15.5315 1.58763 14.5225 1.00396 13.4361 0.605976C13.2039 0.52301 12.955 0.498133 12.7109 0.533518C12.4669 0.568903 12.2352 0.663473 12.0361 0.808976C11.4201 1.24998 10.7231 1.49998 10.0001 1.49998C9.27714 1.49998 8.58014 1.25098 7.96514 0.808976ZM7.00014 9.99998C7.00014 9.20433 7.31621 8.44126 7.87882 7.87866C8.44143 7.31605 9.20449 6.99998 10.0001 6.99998C10.7958 6.99998 11.5589 7.31605 12.1215 7.87866C12.6841 8.44126 13.0001 9.20433 13.0001 9.99998C13.0001 10.7956 12.6841 11.5587 12.1215 12.1213C11.5589 12.6839 10.7958 13 10.0001 13C9.20449 13 8.44143 12.6839 7.87882 12.1213C7.31621 11.5587 7.00014 10.7956 7.00014 9.99998Z" fill="currentColor"/>
  </symbol>
  <symbol id="dots" viewBox="0 0 16 16" fill="none" xmlns="http://www.w3.org/2000/svg">
    <path d="M4.82599 0.629957C4.08729 0.456681 3.31852 0.456681 2.57982 0.629957C1.61232 0.856899 0.8569 1.61232 0.629957 2.57981C0.456681 3.31852 0.456681 4.08729 0.629957 4.82599C0.8569 5.79349 1.61233 6.54891 2.57982 6.77585C3.31852 6.94913 4.08729 6.94913 4.82599 6.77585C5.79348 6.54891 6.54891 5.79348 6.77585 4.82599C6.94913 4.08729 6.94913 3.31852 6.77585 2.57982C6.54891 1.61233 5.79348 0.856899 4.82599 0.629957Z" fill="currentColor"/>
    <path d="M4.82599 9.22415C4.08729 9.05087 3.31852 9.05087 2.57982 9.22415C1.61232 9.45109 0.8569 10.2065 0.629957 11.174C0.456681 11.9127 0.456681 12.6815 0.629957 13.4202C0.8569 14.3877 1.61233 15.1431 2.57982 15.37C3.31852 15.5433 4.08729 15.5433 4.82599 15.37C5.79348 15.1431 6.54891 14.3877 6.77585 13.4202C6.94913 12.6815 6.94913 11.9127 6.77585 11.174C6.54891 10.2065 5.79348 9.45109 4.82599 9.22415Z" fill="currentColor"/>
    <path d="M13.4202 0.629957C12.6815 0.456681 11.9127 0.456681 11.174 0.629957C10.2065 0.856899 9.45109 1.61232 9.22415 2.57981C9.05087 3.31852 9.05087 4.08729 9.22415 4.82599C9.45109 5.79349 10.2065 6.54891 11.174 6.77585C11.9127 6.94913 12.6815 6.94913 13.4202 6.77585C14.3877 6.54891 15.1431 5.79348 15.37 4.82599C15.5433 4.08729 15.5433 3.31852 15.37 2.57982C15.1431 1.61233 14.3877 0.856899 13.4202 0.629957Z" fill="currentColor"/>
    <path d="M13.4202 9.22415C12.6815 9.05087 11.9127 9.05087 11.174 9.22415C10.2065 9.45109 9.45109 10.2065 9.22415 11.174C9.05087 11.9127 9.05087 12.6815 9.22415 13.4202C9.45109 14.3877 10.2065 15.1431 11.174 15.37C11.9127 15.5433 12.6815 15.5433 13.4202 15.37C14.3877 15.1431 15.1431 14.3877 15.37 13.4202C15.5433 12.6815 15.5433 11.9127 15.37 11.174C15.1431 10.2065 14.3877 9.45109 13.4202 9.22415Z" fill="currentColor"/>
  </symbol>
  <symbol id="education" viewBox="0 0 20 20" fill="none" xmlns="http://www.w3.org/2000/svg">
    <path d="M11.8473 2.91666C11.2699 2.6426 10.6389 2.50043 9.99978 2.50043C9.3607 2.50043 8.72962 2.6426 8.15228 2.91666L2.57645 5.53082C1.67978 5.95082 1.44561 7.13666 1.87478 7.95582V12.0833C1.87478 12.2491 1.94063 12.4081 2.05784 12.5253C2.17505 12.6425 2.33402 12.7083 2.49978 12.7083C2.66554 12.7083 2.82451 12.6425 2.94172 12.5253C3.05893 12.4081 3.12478 12.2491 3.12478 12.0833V8.89332L8.15228 11.25C8.72962 11.524 9.3607 11.6662 9.99978 11.6662C10.6389 11.6662 11.2699 11.524 11.8473 11.25L17.4231 8.63582C18.6364 8.06749 18.6364 6.09916 17.4231 5.53082L11.8473 2.91666Z" fill="currentColor"/>
    <path d="M4.1665 10.7625V13.8542C4.1665 14.6942 4.58567 15.4808 5.32067 15.8875C6.54484 16.5667 8.50317 17.5 9.99984 17.5C11.4965 17.5 13.4548 16.5658 14.679 15.8883C15.414 15.4808 15.8332 14.6942 15.8332 13.855V10.7625L12.3782 12.3825C11.6347 12.7345 10.8224 12.917 9.99984 12.917C9.17727 12.917 8.36496 12.7345 7.6215 12.3825L4.1665 10.7625Z" fill="currentColor"/>
  </symbol>
  <symbol id="reload" viewBox="0 0 18 18" fill="none" xmlns="http://www.w3.org/2000/svg">
    <path d="M9 0.875C4.51992 0.875 0.875 4.51992 0.875 9C0.875 13.4801 4.51992 17.125 9 17.125C13.4801 17.125 17.125 13.4801 17.125 9C17.125 4.51992 13.4801 0.875 9 0.875ZM13.6875 7.99023C13.6875 8.07954 13.652 8.16518 13.5889 8.22833C13.5257 8.29148 13.4401 8.32695 13.3508 8.32695H11.025C10.9584 8.32706 10.8932 8.30738 10.8378 8.2704C10.7824 8.23343 10.7392 8.18083 10.7137 8.11928C10.6882 8.05772 10.6816 7.98999 10.6947 7.92466C10.7077 7.85933 10.7399 7.79936 10.7871 7.75234L11.6531 6.88633L11.4344 6.63203C11.0431 6.22583 10.5573 5.92291 10.0203 5.75037C9.48332 5.57782 8.91197 5.54103 8.3573 5.64327C7.80264 5.74552 7.28196 5.98362 6.84181 6.33628C6.40166 6.68895 6.05576 7.14519 5.83504 7.66421C5.61431 8.18323 5.52564 8.74886 5.57695 9.31053C5.62826 9.8722 5.81796 10.4124 6.12908 10.8828C6.44019 11.3533 6.86304 11.7393 7.3598 12.0063C7.85657 12.2734 8.41177 12.4132 8.97578 12.4133C9.68163 12.4126 10.37 12.1936 10.9464 11.7862C11.5228 11.3788 11.9591 10.803 12.1953 10.1379C12.2227 10.0604 12.265 9.98912 12.32 9.92803C12.3749 9.86694 12.4413 9.81727 12.5154 9.78185C12.5896 9.74643 12.6699 9.72595 12.752 9.72159C12.834 9.71724 12.9161 9.72908 12.9936 9.75644C13.071 9.78381 13.1423 9.82617 13.2034 9.88109C13.2645 9.93602 13.3142 10.0024 13.3496 10.0766C13.385 10.1507 13.4055 10.2311 13.4099 10.3131C13.4142 10.3951 13.4024 10.4772 13.375 10.5547C13.0901 11.3609 12.5891 12.0732 11.9267 12.6139C11.2644 13.1546 10.4661 13.5028 9.6192 13.6205C8.77229 13.7381 7.90934 13.6207 7.12466 13.2811C6.33997 12.9414 5.66376 12.3926 5.16992 11.6946C4.67608 10.9966 4.38362 10.1762 4.3245 9.32325C4.26539 8.47026 4.44189 7.61743 4.83472 6.85797C5.22755 6.09852 5.82159 5.46166 6.55191 5.017C7.28224 4.57235 8.12074 4.33702 8.97578 4.33672C9.60682 4.33431 10.2317 4.46112 10.8118 4.70936C11.392 4.95759 11.9152 5.32198 12.3492 5.78008L12.3711 5.8043L12.5395 5.99961L13.1129 5.42617C13.1434 5.39493 13.1799 5.37007 13.2201 5.35303C13.2604 5.336 13.3036 5.32714 13.3473 5.32695C13.3917 5.32659 13.4358 5.33505 13.477 5.35184C13.5182 5.36863 13.5556 5.39341 13.5871 5.42476C13.6187 5.45611 13.6437 5.49341 13.6607 5.53448C13.6777 5.57556 13.6864 5.6196 13.6863 5.66406L13.6875 7.99023Z" fill="currentColor"/>
  </symbol>
  <symbol id="docs" viewBox="0 0 18 22" fill="none" xmlns="http://www.w3.org/2000/svg">
    <path d="M3.66673 21.7681H14.3339C16.4133 21.7681 17.4479 20.7134 17.4479 18.6241V9.50371H10.1754C8.88974 9.50371 8.28716 8.89085 8.28716 7.60514V0.232422H3.66673C1.59759 0.232422 0.552734 1.29699 0.552734 3.38671V18.6241C0.552734 20.7233 1.59759 21.7681 3.66673 21.7681ZM10.2059 8.12757H17.3373C17.267 7.71571 16.9756 7.31371 16.5037 6.82171L10.9589 1.18685C10.4969 0.704708 10.0752 0.413279 9.65302 0.342565V7.58542C9.65302 7.94671 9.84416 8.12757 10.2059 8.12757Z" fill="currentColor" />
  </symbol>
  <symbol id="chart" viewBox="0 0 30 30" fill="none" xmlns="http://www.w3.org/2000/svg">
    <path d="M15.3479 6C15.1559 6 15 6.15594 15 6.3481C15 6.36595 15.0076 6.38144 15.0102 6.39877H15V14.6519C15 14.8441 15.1559 15 15.3479 15H23.6012V14.9898C23.6185 14.9924 23.634 15 23.6521 15C23.8441 15 24 14.8441 24 14.6519C23.9506 9.89502 20.105 6.04962 15.3479 6Z" fill="currentColor"/>
    <path d="M21 16.4205C21 16.2558 20.8665 16.122 20.7017 16.122H14.1963C14.1171 16.122 14.0413 16.0905 13.9853 16.0345C13.9294 15.9786 13.898 15.9027 13.898 15.8235V9.34194H13.8892C13.8915 9.32709 13.898 9.3138 13.898 9.2985C13.898 9.13349 13.7643 9 13.5995 9C13.5923 9 13.5864 9.0036 13.5795 9.00405V9.00203C13.5529 9.0018 13.5266 9 13.5 9C9.35797 9 6 12.358 6 16.5C6 20.642 9.35797 24 13.5 24C17.642 24 21 20.642 21 16.5C21 16.4761 20.9989 16.4525 20.9984 16.4284C20.9984 16.4255 21 16.4232 21 16.4205Z" fill="currentColor"/>
  </symbol>
  <symbol id="division" viewBox="0 0 12 15" fill="none" xmlns="http://www.w3.org/2000/svg">
    <path d="M6 10.25C2.685 10.25 0 11.5925 0 13.25V14.75H12V13.25C12 11.5925 9.315 10.25 6 10.25ZM3 5.75C3 6.54565 3.31607 7.30871 3.87868 7.87132C4.44129 8.43393 5.20435 8.75 6 8.75C6.79565 8.75 7.55871 8.43393 8.12132 7.87132C8.68393 7.30871 9 6.54565 9 5.75M5.625 0.5C5.4 0.5 5.25 0.6575 5.25 0.875V3.125H4.5V1.25C4.5 1.25 2.8125 1.895 2.8125 4.0625C2.8125 4.0625 2.25 4.1675 2.25 5H9.75C9.7125 4.1675 9.1875 4.0625 9.1875 4.0625C9.1875 1.895 7.5 1.25 7.5 1.25V3.125H6.75V0.875C6.75 0.6575 6.6075 0.5 6.375 0.5H5.625Z" fill="currentColor"/>
  </symbol>
  <symbol id="post" viewBox="0 0 16 15" fill="none" xmlns="http://www.w3.org/2000/svg">
    <path d="M14 3.5H11V2C11 1.1675 10.3325 0.5 9.5 0.5H6.5C5.6675 0.5 5 1.1675 5 2V3.5H2C1.1675 3.5 0.5075 4.1675 0.5075 5L0.5 13.25C0.5 14.0825 1.1675 14.75 2 14.75H14C14.8325 14.75 15.5 14.0825 15.5 13.25V5C15.5 4.1675 14.8325 3.5 14 3.5ZM9.5 3.5H6.5V2H9.5V3.5Z" fill="currentColor"/>
  </symbol>
  <symbol id="structure" viewBox="0 0 24 24" fill="none" xmlns="http://www.w3.org/2000/svg">
    <g clip-path="url(#clip0_1585_7619)">
      <path d="M6.53346 12.533H17.4668V14.5863H18.5335V11.4663H12.5335V9.33301H11.4668V11.4663H5.4668V14.5863H6.53346V12.533Z" fill="currentColor" />
      <path d="M9.33301 15.333H2.66634C1.92996 15.333 1.33301 15.93 1.33301 16.6663V20.6663C1.33301 21.4027 1.92996 21.9997 2.66634 21.9997H9.33301C10.0694 21.9997 10.6663 21.4027 10.6663 20.6663V16.6663C10.6663 15.93 10.0694 15.333 9.33301 15.333Z" fill="currentColor" />
      <path d="M21.333 15.333H14.6663C13.93 15.333 13.333 15.93 13.333 16.6663V20.6663C13.333 21.4027 13.93 21.9997 14.6663 21.9997H21.333C22.0694 21.9997 22.6663 21.4027 22.6663 20.6663V16.6663C22.6663 15.93 22.0694 15.333 21.333 15.333Z" fill="currentColor" />
      <path d="M15.333 2H8.66634C7.92996 2 7.33301 2.59695 7.33301 3.33333V7.33333C7.33301 8.06971 7.92996 8.66667 8.66634 8.66667H15.333C16.0694 8.66667 16.6663 8.06971 16.6663 7.33333V3.33333C16.6663 2.59695 16.0694 2 15.333 2Z" fill="currentColor" />
    </g>
    <defs>
      <clipPath id="clip0_1585_7619">
        <rect width="24" height="24" fill="currentColor"/>
      </clipPath>
    </defs>
  </symbol>
  <symbol id="logout" viewBox="0 0 22 18" fill="none" xmlns="http://www.w3.org/2000/svg">
    <path d="M14.75 14.625V9.75H7.95312C7.75421 9.75 7.56345 9.67098 7.4228 9.53033C7.28214 9.38968 7.20312 9.19891 7.20312 9C7.20312 8.80109 7.28214 8.61032 7.4228 8.46967C7.56345 8.32902 7.75421 8.25 7.95312 8.25H14.75V3.375C14.7493 2.67904 14.4725 2.01179 13.9803 1.51967C13.4882 1.02755 12.821 0.750744 12.125 0.75H3.125C2.42904 0.750744 1.76179 1.02755 1.26967 1.51967C0.777545 2.01179 0.500744 2.67904 0.5 3.375V14.625C0.500744 15.321 0.777545 15.9882 1.26967 16.4803C1.76179 16.9725 2.42904 17.2493 3.125 17.25H12.125C12.821 17.2493 13.4882 16.9725 13.9803 16.4803C14.4725 15.9882 14.7493 15.321 14.75 14.625ZM18.9392 9.75L16.4698 12.2198C16.3351 12.3616 16.2611 12.5505 16.2636 12.746C16.2661 12.9416 16.3449 13.1285 16.4832 13.2668C16.6215 13.4051 16.8084 13.4839 17.004 13.4864C17.1995 13.4889 17.3884 13.4149 17.5302 13.2802L21.2802 9.53016C21.4207 9.38952 21.4997 9.19883 21.4997 9C21.4997 8.80117 21.4207 8.61048 21.2802 8.46984L17.5302 4.71984C17.3884 4.58513 17.1995 4.51114 17.004 4.51364C16.8084 4.51614 16.6215 4.59495 16.4832 4.73325C16.3449 4.87155 16.2661 5.0584 16.2636 5.25398C16.2611 5.44955 16.3351 5.63836 16.4698 5.78016L18.9392 8.25H14.75V9.75H18.9392Z" fill="currentColor"/>
  </symbol>
  <symbol id="bag" viewBox="0 0 20 19" fill="none" xmlns="http://www.w3.org/2000/svg">
    <path d="M18 4H14V2C14 0.89 13.11 0 12 0H8C6.89 0 6 0.89 6 2V4H2C0.89 4 0.00999999 4.89 0.00999999 6L0 17C0 18.11 0.89 19 2 19H18C19.11 19 20 18.11 20 17V6C20 4.89 19.11 4 18 4ZM12 4H8V2H12V4Z" fill="currentColor"/>
  </symbol>
  <symbol id="burger" viewBox="0 0 18 14" fill="none" xmlns="http://www.w3.org/2000/svg">
    <path d="M0.999756 1H16.9998M0.999756 7H16.9998M0.999756 13H16.9998" stroke="currentColor" stroke-width="1.5" stroke-linecap="round" stroke-linejoin="round"/>
  </symbol>

  <symbol id="send" viewBox="0 0 13 10" fill="none" xmlns="http://www.w3.org/2000/svg">
    <path d="M0.75 9.875V6.0095L5.1345 5L0.75 3.9905V0.125L12.3173 5L0.75 9.875Z" fill="currentColor"/>
  </symbol>

  <symbol id="blacklist" viewBox="0 0 29 27" fill="none" xmlns="http://www.w3.org/2000/svg">
    <path d="M14 0.753906C13.508 0.753906 13.0209 0.850806 12.5664 1.03907C12.1119 1.22734 11.6989 1.50329 11.351 1.85116C11.0031 2.19903 10.7272 2.61201 10.5389 3.06653C10.3506 3.52104 10.2537 4.00819 10.2537 4.50016C10.2537 4.99212 10.3506 5.47927 10.5389 5.93378C10.7272 6.3883 11.0031 6.80128 11.351 7.14915C11.6989 7.49703 12.1119 7.77297 12.5664 7.96124C13.0209 8.14951 13.508 8.24641 14 8.24641C14.9936 8.24641 15.9464 7.85171 16.649 7.14915C17.3516 6.4466 17.7463 5.49372 17.7463 4.50016C17.7463 3.50659 17.3516 2.55372 16.649 1.85116C15.9464 1.1486 14.9936 0.753906 14 0.753906ZM22.4375 2.62516C21.6916 2.62516 20.9762 2.92147 20.4488 3.44892C19.9213 3.97636 19.625 4.69173 19.625 5.43766C19.625 6.18358 19.9213 6.89895 20.4488 7.42639C20.9762 7.95384 21.6916 8.25016 22.4375 8.25016C23.1834 8.25016 23.8988 7.95384 24.4262 7.42639C24.9537 6.89895 25.25 6.18358 25.25 5.43766C25.25 4.69173 24.9537 3.97636 24.4262 3.44892C23.8988 2.92147 23.1834 2.62516 22.4375 2.62516ZM5.5625 2.62516C4.81658 2.62516 4.10121 2.92147 3.57376 3.44892C3.04632 3.97636 2.75 4.69173 2.75 5.43766C2.75 6.18358 3.04632 6.89895 3.57376 7.42639C4.10121 7.95384 4.81658 8.25016 5.5625 8.25016C6.30842 8.25016 7.02379 7.95384 7.55124 7.42639C8.07868 6.89895 8.375 6.18358 8.375 5.43766C8.375 4.69173 8.07868 3.97636 7.55124 3.44892C7.02379 2.92147 6.30842 2.62516 5.5625 2.62516ZM8.375 11.987C8.37847 11.492 8.57754 11.0185 8.92879 10.6697C9.28005 10.3209 9.75498 10.1251 10.25 10.1252H14.6319C13.2781 11.0768 12.1732 12.3403 11.4106 13.8088C10.6479 15.2774 10.2498 16.9079 10.25 18.5627C10.25 19.907 10.5069 21.1914 10.9756 22.3689C10.1784 21.8605 9.52214 21.1593 9.06759 20.3302C8.61303 19.5011 8.37483 18.5707 8.375 17.6252V11.987ZM6.5 12.0002C6.5 11.3158 6.68188 10.6764 7.0025 10.1252H2.75C2.25272 10.1252 1.77581 10.3227 1.42417 10.6743C1.07254 11.026 0.875 11.5029 0.875 12.0002V16.6877C0.874745 17.4551 1.06292 18.2109 1.42301 18.8886C1.7831 19.5663 2.30408 20.1453 2.9402 20.5746C3.57633 21.0039 4.30813 21.2705 5.07136 21.3509C5.83458 21.4313 6.60587 21.3231 7.3175 21.0358C6.77899 19.9789 6.49882 18.8094 6.5 17.6233V12.0002ZM29 18.5627C29 20.8004 28.1111 22.9465 26.5287 24.5289C24.9464 26.1112 22.8003 27.0002 20.5625 27.0002C18.3247 27.0002 16.1786 26.1112 14.5963 24.5289C13.0139 22.9465 12.125 20.8004 12.125 18.5627C12.125 16.3249 13.0139 14.1788 14.5963 12.5964C16.1786 11.0141 18.3247 10.1252 20.5625 10.1252C22.8003 10.1252 24.9464 11.0141 26.5287 12.5964C28.1111 14.1788 29 16.3249 29 18.5627ZM24.0387 16.4139C24.2148 16.2379 24.3137 15.9991 24.3137 15.7502C24.3137 15.5012 24.2148 15.2624 24.0387 15.0864C23.8627 14.9104 23.624 14.8115 23.375 14.8115C23.126 14.8115 22.8873 14.9104 22.7113 15.0864L20.5625 17.237L18.4137 15.0864C18.2377 14.9104 17.999 14.8115 17.75 14.8115C17.501 14.8115 17.2623 14.9104 17.0863 15.0864C16.9102 15.2624 16.8113 15.5012 16.8113 15.7502C16.8113 15.9991 16.9102 16.2379 17.0863 16.4139L19.2369 18.5627L17.0863 20.7114C16.9102 20.8874 16.8113 21.1262 16.8113 21.3752C16.8113 21.6241 16.9102 21.8629 17.0863 22.0389C17.2623 22.2149 17.501 22.3138 17.75 22.3138C17.999 22.3138 18.2377 22.2149 18.4137 22.0389L20.5625 19.8883L22.7113 22.0389C22.8873 22.2149 23.126 22.3138 23.375 22.3138C23.624 22.3138 23.8627 22.2149 24.0387 22.0389C24.2148 21.8629 24.3137 21.6241 24.3137 21.3752C24.3137 21.1262 24.2148 20.8874 24.0387 20.7114L21.8881 18.5627L24.0387 16.4139Z" fill="currentColor"/>
  </symbol>
  <symbol id="user-link" viewBox="0 0 27 28" fill="none" xmlns="http://www.w3.org/2000/svg">
    <path d="M12.0625 14C13.803 14 15.4722 13.3086 16.7029 12.0779C17.9336 10.8472 18.625 9.17798 18.625 7.4375C18.625 5.69702 17.9336 4.02782 16.7029 2.79711C15.4722 1.5664 13.803 0.875 12.0625 0.875C10.322 0.875 8.65282 1.5664 7.42211 2.79711C6.1914 4.02782 5.5 5.69702 5.5 7.4375C5.5 9.17798 6.1914 10.8472 7.42211 12.0779C8.65282 13.3086 10.322 14 12.0625 14ZM4.09375 15.875C3.22351 15.875 2.38891 16.2207 1.77356 16.8361C1.1582 17.4514 0.8125 18.286 0.8125 19.1562V19.625C0.8125 21.8684 2.24031 23.7659 4.26719 25.0559C6.30531 26.3534 9.06437 27.125 12.0625 27.125C12.2262 27.125 12.3891 27.1228 12.5509 27.1184C11.8288 26.3085 11.3563 25.3069 11.1905 24.2345C11.0247 23.1621 11.1726 22.0646 11.6164 21.0743C12.0603 20.0841 12.7811 19.2434 13.6919 18.6535C14.6028 18.0637 15.6648 17.7499 16.75 17.75H22.375C22.5906 17.75 22.8034 17.7619 23.0134 17.7856C22.7512 17.2152 22.3309 16.7321 21.8023 16.3934C21.2737 16.0547 20.659 15.8748 20.0312 15.875H4.09375ZM18.1562 20.0938C18.1562 19.8451 18.0575 19.6067 17.8817 19.4308C17.7058 19.255 17.4674 19.1562 17.2188 19.1562H16.75C15.6311 19.1562 14.5581 19.6007 13.7669 20.3919C12.9757 21.1831 12.5312 22.2561 12.5312 23.375C12.5312 24.4939 12.9757 25.5669 13.7669 26.3581C14.5581 27.1493 15.6311 27.5938 16.75 27.5938H17.2188C17.4674 27.5938 17.7058 27.495 17.8817 27.3192C18.0575 27.1433 18.1562 26.9049 18.1562 26.6562C18.1562 26.4076 18.0575 26.1692 17.8817 25.9933C17.7058 25.8175 17.4674 25.7188 17.2188 25.7188H16.75C16.1284 25.7188 15.5323 25.4718 15.0927 25.0323C14.6532 24.5927 14.4062 23.9966 14.4062 23.375C14.4062 22.7534 14.6532 22.1573 15.0927 21.7177C15.5323 21.2782 16.1284 21.0312 16.75 21.0312H17.2188C17.4674 21.0312 17.7058 20.9325 17.8817 20.7567C18.0575 20.5808 18.1562 20.3424 18.1562 20.0938ZM21.9062 19.1562C21.6576 19.1562 21.4192 19.255 21.2433 19.4308C21.0675 19.6067 20.9688 19.8451 20.9688 20.0938C20.9688 20.3424 21.0675 20.5808 21.2433 20.7567C21.4192 20.9325 21.6576 21.0312 21.9062 21.0312H22.375C22.9966 21.0312 23.5927 21.2782 24.0323 21.7177C24.4718 22.1573 24.7188 22.7534 24.7188 23.375C24.7188 23.9966 24.4718 24.5927 24.0323 25.0323C23.5927 25.4718 22.9966 25.7188 22.375 25.7188H21.9062C21.6576 25.7188 21.4192 25.8175 21.2433 25.9933C21.0675 26.1692 20.9688 26.4076 20.9688 26.6562C20.9688 26.9049 21.0675 27.1433 21.2433 27.3192C21.4192 27.495 21.6576 27.5938 21.9062 27.5938H22.375C23.4939 27.5938 24.5669 27.1493 25.3581 26.3581C26.1493 25.5669 26.5938 24.4939 26.5938 23.375C26.5938 22.2561 26.1493 21.1831 25.3581 20.3919C24.5669 19.6007 23.4939 19.1562 22.375 19.1562H21.9062ZM17.2188 22.4375C16.9701 22.4375 16.7317 22.5363 16.5558 22.7121C16.38 22.8879 16.2812 23.1264 16.2812 23.375C16.2812 23.6236 16.38 23.8621 16.5558 24.0379C16.7317 24.2137 16.9701 24.3125 17.2188 24.3125H21.9062C22.1549 24.3125 22.3933 24.2137 22.5692 24.0379C22.745 23.8621 22.8438 23.6236 22.8438 23.375C22.8438 23.1264 22.745 22.8879 22.5692 22.7121C22.3933 22.5363 22.1549 22.4375 21.9062 22.4375H17.2188Z" fill="currentColor"/>
  </symbol>
  <symbol id="eye" viewBox="0 0 10 10" fill="none" xmlns="http://www.w3.org/2000/svg">
    <path d="M4.1665 4.99984C4.1665 5.22085 4.2543 5.43281 4.41058 5.58909C4.56686 5.74537 4.77882 5.83317 4.99984 5.83317C5.22085 5.83317 5.43281 5.74537 5.58909 5.58909C5.74537 5.43281 5.83317 5.22085 5.83317 4.99984C5.83317 4.77882 5.74537 4.56686 5.58909 4.41058C5.43281 4.2543 5.22085 4.1665 4.99984 4.1665C4.77882 4.1665 4.56686 4.2543 4.41058 4.41058C4.2543 4.56686 4.1665 4.77882 4.1665 4.99984Z" stroke="currentColor" stroke-linecap="round" stroke-linejoin="round"/>
    <path d="M8.75 5C7.75 6.66667 6.5 7.5 5 7.5C3.5 7.5 2.25 6.66667 1.25 5C2.25 3.33333 3.5 2.5 5 2.5C6.5 2.5 7.75 3.33333 8.75 5Z" stroke="currentColor" stroke-linecap="round" stroke-linejoin="round"/>
  </symbol>
  <symbol id="coin" viewBox="0 0 20 20" fill="none" xmlns="http://www.w3.org/2000/svg">
    <circle cx="10" cy="10" r="10" fill="#6A8BFF"/>
    <path d="M6.47209 8.0663H7.30642V11.9337H6.47209V8.0663ZM4.83433 11.9337H4V8.0663H4.83433V11.9337ZM6.53389 10.3481H4.77253V9.59116H6.53389V10.3481Z" fill="white"/>
    <path d="M9.88468 12C9.60657 12 9.34735 11.9521 9.10701 11.8564C8.8701 11.7569 8.66409 11.6169 8.48899 11.4365C8.31388 11.256 8.17654 11.0442 8.07697 10.8011C7.98083 10.558 7.93277 10.291 7.93277 10C7.93277 9.70902 7.98083 9.44199 8.07697 9.19889C8.17654 8.9558 8.31388 8.74401 8.48899 8.56354C8.66752 8.38306 8.87525 8.24494 9.11216 8.14917C9.34907 8.04972 9.60829 8 9.88983 8C10.2023 8 10.4838 8.05893 10.7345 8.1768C10.9885 8.29098 11.2014 8.46041 11.3731 8.68508L10.8375 9.21547C10.7139 9.06446 10.5765 8.95212 10.4255 8.87845C10.2744 8.8011 10.1096 8.76243 9.93104 8.76243C9.7628 8.76243 9.60829 8.7919 9.46752 8.85083C9.32675 8.90976 9.20486 8.99447 9.10186 9.10497C8.99885 9.21547 8.91817 9.34622 8.8598 9.49724C8.80486 9.64825 8.7774 9.81584 8.7774 10C8.7774 10.1842 8.80486 10.3517 8.8598 10.5028C8.91817 10.6538 8.99885 10.7845 9.10186 10.895C9.20486 11.0055 9.32675 11.0902 9.46752 11.1492C9.60829 11.2081 9.7628 11.2376 9.93104 11.2376C10.1096 11.2376 10.2744 11.2007 10.4255 11.1271C10.5765 11.0497 10.7139 10.9337 10.8375 10.779L11.3731 11.3094C11.2014 11.5341 10.9885 11.7053 10.7345 11.8232C10.4838 11.9411 10.2006 12 9.88468 12Z" fill="white"/>
    <path d="M11.9365 11.9337V8.0663H12.6266L14.1614 10.7956H13.7957L15.3047 8.0663H15.9897L16 11.9337H15.2172L15.212 9.35359H15.3562L14.1511 11.5249H13.7751L12.5442 9.35359H12.7193V11.9337H11.9365Z" fill="white"/>
  </symbol>
  <symbol id="feedback" viewBox="0 0 20 20" fill="none" xmlns="http://www.w3.org/2000/svg">
    <path d="M10.5 12C11.3284 12 12 12.6716 12 13.5V14C12 15.9714 10.1405 18 7 18C3.85951 18 2 15.9714 2 14V13.5C2 12.6716 2.67157 12 3.5 12H10.5ZM7 5.5C8.51878 5.5 9.75 6.73122 9.75 8.25C9.75 9.76878 8.51878 11 7 11C5.48122 11 4.25 9.76878 4.25 8.25C4.25 6.73122 5.48122 5.5 7 5.5ZM16 2C17.0544 2 17.9182 2.81588 17.9945 3.85074L18 4V6C18 7.05436 17.1841 7.91817 16.1493 7.99451L16 8H14.499L13.301 9.59979C12.7716 10.306 11.6965 10.0199 11.5243 9.22426L11.5066 9.11264L11.5008 9L11.5 7.935L11.4224 7.91532C10.697 7.69685 10.1452 7.07753 10.0246 6.3148L10.0055 6.14926L10 6V4C10 2.94564 10.8159 2.08183 11.8507 2.00549L12 2H16Z" fill="currentColor"/>
  </symbol>
  <symbol id="review" viewBox="0 0 16 15" fill="none" xmlns="http://www.w3.org/2000/svg">
    <path fill-rule="evenodd" clip-rule="evenodd" d="M0.5 5.66536C0.5 3.7987 0.5 2.86536 0.863333 2.15203C1.18291 1.52485 1.69282 1.01494 2.32 0.695364C3.03333 0.332031 3.96667 0.332031 5.83333 0.332031H10.1667C12.0333 0.332031 12.9667 0.332031 13.68 0.695364C14.3072 1.01494 14.8171 1.52485 15.1367 2.15203C15.5 2.86536 15.5 3.7987 15.5 5.66536V6.66536C15.5 8.53203 15.5 9.46536 15.1367 10.1787C14.8171 10.8059 14.3072 11.3158 13.68 11.6354C12.9667 11.9987 12.0333 11.9987 10.1667 11.9987H4.17833C3.95734 11.9987 3.74541 12.0866 3.58917 12.2429L1.9225 13.9095C1.3975 14.4345 0.5 14.0629 0.5 13.3204V7.83203V5.66536ZM5.5 3.66536C5.27899 3.66536 5.06702 3.75316 4.91074 3.90944C4.75446 4.06572 4.66667 4.27768 4.66667 4.4987C4.66667 4.71971 4.75446 4.93167 4.91074 5.08795C5.06702 5.24423 5.27899 5.33203 5.5 5.33203H10.5C10.721 5.33203 10.933 5.24423 11.0893 5.08795C11.2455 4.93167 11.3333 4.71971 11.3333 4.4987C11.3333 4.27768 11.2455 4.06572 11.0893 3.90944C10.933 3.75316 10.721 3.66536 10.5 3.66536H5.5ZM5.5 6.9987C5.27899 6.9987 5.06702 7.0865 4.91074 7.24278C4.75446 7.39906 4.66667 7.61102 4.66667 7.83203C4.66667 8.05304 4.75446 8.26501 4.91074 8.42129C5.06702 8.57757 5.27899 8.66536 5.5 8.66536H8C8.22101 8.66536 8.43297 8.57757 8.58926 8.42129C8.74554 8.26501 8.83333 8.05304 8.83333 7.83203C8.83333 7.61102 8.74554 7.39906 8.58926 7.24278C8.43297 7.0865 8.22101 6.9987 8 6.9987H5.5Z" fill="currentColor" />
  </symbol>
  <symbol id="calculation" viewBox="0 0 20 18" fill="none" xmlns="http://www.w3.org/2000/svg">
    <path d="M2 18C1.45 18 0.979333 17.8043 0.588 17.413C0.196667 17.0217 0.000666667 16.5507 0 16V2C0 1.45 0.196 0.979333 0.588 0.588C0.98 0.196667 1.45067 0.000666667 2 0H18C18.55 0 19.021 0.196 19.413 0.588C19.805 0.98 20.0007 1.45067 20 2V16C20 16.55 19.8043 17.021 19.413 17.413C19.0217 17.805 18.5507 18.0007 18 18H2ZM3 14H8V12H3V14ZM12.55 12L17.5 7.05L16.075 5.625L12.55 9.175L11.125 7.75L9.725 9.175L12.55 12ZM3 10H8V8H3V10ZM3 6H8V4H3V6Z" fill="currentColor"/>
  </symbol>
  <symbol id="music" viewBox="0 0 24 24" fill="none" xmlns="http://www.w3.org/2000/svg">
    <g id="SVGRepo_iconCarrier"> 
      <path d="M14.3187 2.50498C13.0514 2.35716 11.8489 3.10033 11.4144 4.29989C11.3165 4.57023 11.2821 4.86251 11.266 5.16888C11.2539 5.40001 11.2509 5.67552 11.2503 6L11.25 6.45499C11.25 6.4598 11.25 6.4646 11.25 6.46938V14.5359C10.4003 13.7384 9.25721 13.25 8 13.25C5.37665 13.25 3.25 15.3766 3.25 18C3.25 20.6234 5.37665 22.75 8 22.75C10.6234 22.75 12.75 20.6234 12.75 18V9.21059C12.8548 9.26646 12.9683 9.32316 13.0927 9.38527L15.8002 10.739C16.2185 10.9481 16.5589 11.1183 16.8378 11.2399C17.119 11.3625 17.3958 11.4625 17.6814 11.4958C18.9486 11.6436 20.1511 10.9004 20.5856 9.70089C20.6836 9.43055 20.7179 9.13826 20.7341 8.83189C20.75 8.52806 20.75 8.14752 20.75 7.67988L20.7501 7.59705C20.7502 7.2493 20.7503 6.97726 20.701 6.71946C20.574 6.05585 20.2071 5.46223 19.6704 5.05185C19.4618 4.89242 19.2185 4.77088 18.9074 4.6155L16.1999 3.26179C15.7816 3.05264 15.4412 2.88244 15.1623 2.76086C14.8811 2.63826 14.6043 2.53829 14.3187 2.50498Z" fill="currentColor"></path> 
    </g>
  </symbol>
  <symbol id="excel" viewBox="0 0 24 24" fill="none" xmlns="http://www.w3.org/2000/svg">
    <path d="M4 7.5V3C4 2.73478 4.10536 2.48043 4.29289 2.29289C4.48043 2.10536 4.73478 2 5 2H19C19.2652 2 19.5196 2.10536 19.7071 2.29289C19.8946 2.48043 20 2.73478 20 3V21C20 21.2652 19.8946 21.5196 19.7071 21.7071C19.5196 21.8946 19.2652 22 19 22H5C4.73478 22 4.48043 21.8946 4.29289 21.7071C4.10536 21.5196 4 21.2652 4 21V16.5" stroke="currentColor" stroke-width="2" stroke-linecap="round" stroke-linejoin="round"/>
    <path d="M15.5 7.5H17M14 11.5H17M14 15.5H17" stroke="currentColor" stroke-width="2" stroke-linecap="round"/>
    <path d="M5 10.5L8 13.5M8 10.5L5 13.5M2 7.5H11V16.5H2V7.5Z" stroke="currentColor" stroke-width="2" stroke-linecap="round" stroke-linejoin="round"/>
  </symbol>
  <symbol id="service" viewBox="0 0 16 16" fill="none" xmlns="http://www.w3.org/2000/svg">
    <path d="M4.64844 10.8359H11.3516M3.61719 14.4453H12.3828C12.9298 14.4453 13.4544 14.228 13.8412 13.8412C14.228 13.4544 14.4453 12.9298 14.4453 12.3828V3.61719C14.4453 3.07018 14.228 2.54557 13.8412 2.15878C13.4544 1.77199 12.9298 1.55469 12.3828 1.55469H3.61719C3.07018 1.55469 2.54557 1.77199 2.15878 2.15878C1.77199 2.54557 1.55469 3.07018 1.55469 3.61719V12.3828C1.55469 12.9298 1.77199 13.4544 2.15878 13.8412C2.54557 14.228 3.07018 14.4453 3.61719 14.4453Z" stroke="currentColor" stroke-width="2" stroke-linecap="round" stroke-linejoin="round"/>
  </symbol>
  <symbol id="catalog" viewBox="0 0 18 18" fill="none" xmlns="http://www.w3.org/2000/svg">
    <path fill-rule="evenodd" clip-rule="evenodd" d="M0 3C0 2.20435 0.316071 1.44129 0.87868 0.87868C1.44129 0.316071 2.20435 0 3 0H5.25C6.04565 0 6.80871 0.316071 7.37132 0.87868C7.93393 1.44129 8.25 2.20435 8.25 3V5.25C8.25 6.04565 7.93393 6.80871 7.37132 7.37132C6.80871 7.93393 6.04565 8.25 5.25 8.25H3C2.20435 8.25 1.44129 7.93393 0.87868 7.37132C0.316071 6.80871 0 6.04565 0 5.25V3ZM9.75 3C9.75 2.20435 10.0661 1.44129 10.6287 0.87868C11.1913 0.316071 11.9544 0 12.75 0H15C15.7956 0 16.5587 0.316071 17.1213 0.87868C17.6839 1.44129 18 2.20435 18 3V5.25C18 6.04565 17.6839 6.80871 17.1213 7.37132C16.5587 7.93393 15.7956 8.25 15 8.25H12.75C11.9544 8.25 11.1913 7.93393 10.6287 7.37132C10.0661 6.80871 9.75 6.04565 9.75 5.25V3ZM0 12.75C0 11.9544 0.316071 11.1913 0.87868 10.6287C1.44129 10.0661 2.20435 9.75 3 9.75H5.25C6.04565 9.75 6.80871 10.0661 7.37132 10.6287C7.93393 11.1913 8.25 11.9544 8.25 12.75V15C8.25 15.7956 7.93393 16.5587 7.37132 17.1213C6.80871 17.6839 6.04565 18 5.25 18H3C2.20435 18 1.44129 17.6839 0.87868 17.1213C0.316071 16.5587 0 15.7956 0 15V12.75ZM9.75 12.75C9.75 11.9544 10.0661 11.1913 10.6287 10.6287C11.1913 10.0661 11.9544 9.75 12.75 9.75H15C15.7956 9.75 16.5587 10.0661 17.1213 10.6287C17.6839 11.1913 18 11.9544 18 12.75V15C18 15.7956 17.6839 16.5587 17.1213 17.1213C16.5587 17.6839 15.7956 18 15 18H12.75C11.9544 18 11.1913 17.6839 10.6287 17.1213C10.0661 16.5587 9.75 15.7956 9.75 15V12.75Z" fill="currentColor"/>
  </symbol>
  <symbol id="shops" viewBox="0 0 24 24" fill="none" xmlns="http://www.w3.org/2000/svg">
    <path d="M3.77802 3.655C3.59702 4.015 3.50802 4.461 3.33002 5.351L2.73202 8.341C2.64727 8.74867 2.64662 9.16936 2.73009 9.5773C2.81357 9.98523 2.97943 10.3718 3.21751 10.7135C3.45559 11.0551 3.76089 11.3445 4.11471 11.564C4.46853 11.7835 4.86344 11.9285 5.27525 11.9901C5.68706 12.0518 6.1071 12.0287 6.50968 11.9223C6.91225 11.8159 7.28888 11.6285 7.61651 11.3715C7.94414 11.1145 8.21588 10.7934 8.41508 10.4277C8.61428 10.0621 8.73676 9.65963 8.77502 9.245L8.84502 8.555C8.80713 8.99384 8.86119 9.43576 9.00375 9.85252C9.14631 10.2693 9.37425 10.6517 9.67298 10.9754C9.97172 11.2991 10.3347 11.5569 10.7387 11.7324C11.1427 11.9078 11.5789 11.9971 12.0194 11.9944C12.4598 11.9918 12.8949 11.8973 13.2968 11.717C13.6986 11.5366 14.0585 11.2745 14.3533 10.9472C14.6481 10.6199 14.8714 10.2348 15.0089 9.81634C15.1465 9.39789 15.1952 8.95535 15.152 8.517L15.225 9.245C15.2633 9.65963 15.3858 10.0621 15.585 10.4277C15.7842 10.7934 16.0559 11.1145 16.3835 11.3715C16.7112 11.6285 17.0878 11.8159 17.4904 11.9223C17.8929 12.0287 18.313 12.0518 18.7248 11.9901C19.1366 11.9285 19.5315 11.7835 19.8853 11.564C20.2392 11.3445 20.5445 11.0551 20.7825 10.7135C21.0206 10.3718 21.1865 9.98523 21.27 9.5773C21.3534 9.16936 21.3528 8.74867 21.268 8.341L20.67 5.351C20.492 4.461 20.403 4.016 20.222 3.655C20.0334 3.27904 19.7679 2.94694 19.4426 2.68025C19.1174 2.41356 18.7397 2.21826 18.334 2.107C17.944 2 17.49 2 16.582 2H7.41802C6.51002 2 6.05602 2 5.66602 2.107C5.26039 2.21826 4.88269 2.41356 4.55743 2.68025C4.23217 2.94694 3.96662 3.27904 3.77802 3.655ZM18.269 13.5C19.0504 13.502 19.8189 13.3018 20.5 12.919V14C20.5 17.771 20.5 19.657 19.328 20.828C18.385 21.772 16.98 21.955 14.5 21.991V18.5C14.5 17.565 14.5 17.098 14.299 16.75C14.1674 16.522 13.978 16.3326 13.75 16.201C13.402 16 12.935 16 12 16C11.065 16 10.598 16 10.25 16.201C10.022 16.3326 9.83267 16.522 9.70102 16.75C9.50002 17.098 9.50002 17.565 9.50002 18.5V21.991C7.02002 21.955 5.61502 21.771 4.67202 20.828C3.50002 19.657 3.50002 17.771 3.50002 14V12.919C4.18144 13.302 4.95036 13.5021 5.73202 13.5C6.88766 13.5007 8.00028 13.0617 8.84402 12.272C9.70374 13.0643 10.8309 13.5029 12 13.5C13.1692 13.5029 14.2963 13.0643 15.156 12.272C15.9998 13.0617 17.1134 13.5007 18.269 13.5Z" fill="currentColor"/>
  </symbol>
  <symbol id='like' viewBox="0 0 24 24" fill="none" xmlns="http://www.w3.org/2000/svg">
    <path d="M7.5 4C4.4625 4 2 6.4625 2 9.5C2 15 8.5 20 12 21.163C15.5 20 22 15 22 9.5C22 6.4625 19.5375 4 16.5 4C14.64 4 12.995 4.9235 12 6.337C11.4928 5.61469 10.819 5.0252 10.0357 4.61841C9.25238 4.21162 8.38263 3.9995 7.5 4Z" fill="currentColor" stroke="currentColor" stroke-width="2" stroke-linecap="round" stroke-linejoin="round"/>
  </symbol>
  <symbol id='basket' viewBox="0 0 24 24" fill="none" xmlns="http://www.w3.org/2000/svg">
    <path d="M2.78686 2.27972C2.88141 2.25181 2.98054 2.2428 3.07857 2.25323C3.1766 2.26366 3.27162 2.29331 3.35818 2.34049C3.44474 2.38768 3.52116 2.45146 3.58304 2.5282C3.64493 2.60494 3.69109 2.69313 3.71886 2.78772L4.26886 4.64972H18.9239C20.7639 4.64972 22.1689 6.36672 21.6389 8.15972L19.9839 13.7597C19.6319 14.9537 18.5129 15.7497 17.2689 15.7497H8.11286C6.86886 15.7497 5.75086 14.9537 5.39786 13.7597L2.28086 3.21272C2.2244 3.02203 2.24599 2.81672 2.34088 2.64195C2.43577 2.46717 2.59619 2.33624 2.78686 2.27972ZM6.24986 19.4997C6.24986 18.903 6.48691 18.3307 6.90887 17.9087C7.33083 17.4868 7.90312 17.2497 8.49986 17.2497C9.0966 17.2497 9.66889 17.4868 10.0909 17.9087C10.5128 18.3307 10.7499 18.903 10.7499 19.4997C10.7499 20.0965 10.5128 20.6688 10.0909 21.0907C9.66889 21.5127 9.0966 21.7497 8.49986 21.7497C7.90312 21.7497 7.33083 21.5127 6.90887 21.0907C6.48691 20.6688 6.24986 20.0965 6.24986 19.4997ZM14.2499 19.4997C14.2499 19.2042 14.3081 18.9117 14.4211 18.6387C14.5342 18.3657 14.6999 18.1177 14.9089 17.9087C15.1178 17.6998 15.3658 17.5341 15.6388 17.421C15.9118 17.3079 16.2044 17.2497 16.4999 17.2497C16.7953 17.2497 17.0879 17.3079 17.3609 17.421C17.6339 17.5341 17.8819 17.6998 18.0909 17.9087C18.2998 18.1177 18.4655 18.3657 18.5786 18.6387C18.6917 18.9117 18.7499 19.2042 18.7499 19.4997C18.7499 20.0965 18.5128 20.6688 18.0909 21.0907C17.6689 21.5127 17.0966 21.7497 16.4999 21.7497C15.9031 21.7497 15.3308 21.5127 14.9089 21.0907C14.4869 20.6688 14.2499 20.0965 14.2499 19.4997Z" fill="currentColor"/>
  </symbol>
  <symbol  id='profile' viewBox="0 0 24 24" fill="none" xmlns="http://www.w3.org/2000/svg">
    <path d="M12 12C13.3924 12 14.7277 11.4469 15.7123 10.4623C16.6969 9.47774 17.25 8.14239 17.25 6.75C17.25 5.35761 16.6969 4.02226 15.7123 3.03769C14.7277 2.05312 13.3924 1.5 12 1.5C10.6076 1.5 9.27226 2.05312 8.28769 3.03769C7.30312 4.02226 6.75 5.35761 6.75 6.75C6.75 8.14239 7.30312 9.47774 8.28769 10.4623C9.27226 11.4469 10.6076 12 12 12ZM5.625 13.5C4.92881 13.5 4.26113 13.7766 3.76884 14.2688C3.27656 14.7611 3 15.4288 3 16.125V16.5C3 18.2948 4.14225 19.8127 5.76375 20.8447C7.39425 21.8827 9.6015 22.5 12 22.5C14.3985 22.5 16.605 21.8827 18.2362 20.8447C19.8577 19.8127 21 18.2948 21 16.5V16.125C21 15.4288 20.7234 14.7611 20.2312 14.2688C19.7389 13.7766 19.0712 13.5 18.375 13.5H5.625Z" fill="currentColor"/>
  </symbol>

  <symbol id="subCategory"  viewBox="0 0 20 20" fill="none" xmlns="http://www.w3.org/2000/svg">
    <path fill-rule="evenodd" clip-rule="evenodd" d="M2.5 5C2.5 4.33696 2.76339 3.70107 3.23223 3.23223C3.70107 2.76339 4.33696 2.5 5 2.5H6.875C7.53804 2.5 8.17393 2.76339 8.64277 3.23223C9.11161 3.70107 9.375 4.33696 9.375 5V6.875C9.375 7.53804 9.11161 8.17393 8.64277 8.64277C8.17393 9.11161 7.53804 9.375 6.875 9.375H5C4.33696 9.375 3.70107 9.11161 3.23223 8.64277C2.76339 8.17393 2.5 7.53804 2.5 6.875V5ZM10.625 5C10.625 4.33696 10.8884 3.70107 11.3572 3.23223C11.8261 2.76339 12.462 2.5 13.125 2.5H15C15.663 2.5 16.2989 2.76339 16.7678 3.23223C17.2366 3.70107 17.5 4.33696 17.5 5V6.875C17.5 7.53804 17.2366 8.17393 16.7678 8.64277C16.2989 9.11161 15.663 9.375 15 9.375H13.125C12.462 9.375 11.8261 9.11161 11.3572 8.64277C10.8884 8.17393 10.625 7.53804 10.625 6.875V5ZM2.5 13.125C2.5 12.462 2.76339 11.8261 3.23223 11.3572C3.70107 10.8884 4.33696 10.625 5 10.625H6.875C7.53804 10.625 8.17393 10.8884 8.64277 11.3572C9.11161 11.8261 9.375 12.462 9.375 13.125V15C9.375 15.663 9.11161 16.2989 8.64277 16.7678C8.17393 17.2366 7.53804 17.5 6.875 17.5H5C4.33696 17.5 3.70107 17.2366 3.23223 16.7678C2.76339 16.2989 2.5 15.663 2.5 15V13.125Z" fill="currentColor"/>
  </symbol>

  <symbol id='location' viewBox="0 0 14 18" fill="none" xmlns="http://www.w3.org/2000/svg">
    <path d="M6.99974 0.666016C3.32391 0.666016 0.333076 3.65685 0.333076 7.32852C0.308909 12.6993 6.74641 17.1527 6.99974 17.3327C6.99974 17.3327 13.6906 12.6993 13.6664 7.33268C13.6664 3.65685 10.6756 0.666016 6.99974 0.666016ZM6.99974 10.666C5.15808 10.666 3.66641 9.17435 3.66641 7.33268C3.66641 5.49102 5.15808 3.99935 6.99974 3.99935C8.84141 3.99935 10.3331 5.49102 10.3331 7.33268C10.3331 9.17435 8.84141 10.666 6.99974 10.666Z" fill="currentColor"/>
  </symbol>
  <symbol id='arrow-left' viewBox="0 0 20 40" fill="none" xmlns="http://www.w3.org/2000/svg">
    <path d="M15.9134 29.0336L14.145 30.8003L4.51335 21.1719C4.3581 21.0176 4.23488 20.8342 4.1508 20.6321C4.06672 20.43 4.02344 20.2133 4.02344 19.9944C4.02344 19.7755 4.06672 19.5588 4.1508 19.3568C4.23488 19.1547 4.3581 18.9712 4.51335 18.8169L14.145 9.18359L15.9117 10.9503L6.87169 19.9919L15.9134 29.0336Z" fill="currentColor"/>
  </symbol>

  <symbol id='category' viewBox="0 0 16 16" fill="none" xmlns="http://www.w3.org/2000/svg">
    <path fill-rule="evenodd" clip-rule="evenodd" d="M0.5 3C0.5 2.33696 0.763392 1.70107 1.23223 1.23223C1.70107 0.763392 2.33696 0.5 3 0.5H4.875C5.53804 0.5 6.17393 0.763392 6.64277 1.23223C7.11161 1.70107 7.375 2.33696 7.375 3V4.875C7.375 5.53804 7.11161 6.17393 6.64277 6.64277C6.17393 7.11161 5.53804 7.375 4.875 7.375H3C2.33696 7.375 1.70107 7.11161 1.23223 6.64277C0.763392 6.17393 0.5 5.53804 0.5 4.875V3ZM8.625 3C8.625 2.33696 8.88839 1.70107 9.35723 1.23223C9.82607 0.763392 10.462 0.5 11.125 0.5H13C13.663 0.5 14.2989 0.763392 14.7678 1.23223C15.2366 1.70107 15.5 2.33696 15.5 3V4.875C15.5 5.53804 15.2366 6.17393 14.7678 6.64277C14.2989 7.11161 13.663 7.375 13 7.375H11.125C10.462 7.375 9.82607 7.11161 9.35723 6.64277C8.88839 6.17393 8.625 5.53804 8.625 4.875V3ZM0.5 11.125C0.5 10.462 0.763392 9.82607 1.23223 9.35723C1.70107 8.88839 2.33696 8.625 3 8.625H4.875C5.53804 8.625 6.17393 8.88839 6.64277 9.35723C7.11161 9.82607 7.375 10.462 7.375 11.125V13C7.375 13.663 7.11161 14.2989 6.64277 14.7678C6.17393 15.2366 5.53804 15.5 4.875 15.5H3C2.33696 15.5 1.70107 15.2366 1.23223 14.7678C0.763392 14.2989 0.5 13.663 0.5 13V11.125ZM8.625 11.125C8.625 10.462 8.88839 9.82607 9.35723 9.35723C9.82607 8.88839 10.462 8.625 11.125 8.625H13C13.663 8.625 14.2989 8.88839 14.7678 9.35723C15.2366 9.82607 15.5 10.462 15.5 11.125V13C15.5 13.663 15.2366 14.2989 14.7678 14.7678C14.2989 15.2366 13.663 15.5 13 15.5H11.125C10.462 15.5 9.82607 15.2366 9.35723 14.7678C8.88839 14.2989 8.625 13.663 8.625 13V11.125Z" fill="currentColor"/>
  </symbol>

<symbol id="shop" viewBox="0 0 16 18" fill="none" xmlns="http://www.w3.org/2000/svg">
<path d="M1.14843 2.04616C0.997601 2.34616 0.923434 2.71783 0.7751 3.45949L0.276767 5.95116C0.206141 6.29089 0.205594 6.64146 0.27516 6.98141C0.344725 7.32135 0.482939 7.64353 0.68134 7.9282C0.879742 8.21288 1.13416 8.45407 1.42901 8.63701C1.72386 8.81994 2.05295 8.94078 2.39612 8.99212C2.73929 9.04345 3.08934 9.02421 3.42481 8.93557C3.76029 8.84692 4.07415 8.69075 4.34718 8.47659C4.6202 8.26244 4.84664 7.99482 5.01265 7.69011C5.17865 7.3854 5.28072 7.05002 5.3126 6.70449L5.37093 6.12949C5.33935 6.49519 5.3844 6.86346 5.50321 7.21076C5.62201 7.55806 5.81195 7.87676 6.0609 8.1465C6.30985 8.41624 6.61232 8.63108 6.949 8.7773C7.28568 8.92351 7.64916 8.99789 8.01622 8.99568C8.38327 8.99347 8.74582 8.91472 9.08072 8.76445C9.41561 8.61419 9.71548 8.39572 9.96116 8.123C10.2068 7.85028 10.3929 7.52932 10.5075 7.18061C10.6221 6.8319 10.6628 6.46312 10.6268 6.09783L10.6876 6.70449C10.7195 7.05002 10.8216 7.3854 10.9876 7.69011C11.1536 7.99482 11.38 8.26244 11.653 8.47659C11.9261 8.69075 12.2399 8.84692 12.5754 8.93557C12.9109 9.02421 13.2609 9.04345 13.6041 8.99212C13.9473 8.94078 14.2763 8.81994 14.5712 8.63701C14.866 8.45407 15.1205 8.21288 15.3189 7.9282C15.5173 7.64353 15.6555 7.32135 15.725 6.98141C15.7946 6.64146 15.7941 6.29089 15.7234 5.95116L15.2251 3.45949C15.0768 2.71783 15.0026 2.34699 14.8518 2.04616C14.6946 1.73286 14.4733 1.45611 14.2023 1.23387C13.9312 1.01163 13.6165 0.848872 13.2784 0.756159C12.9534 0.666992 12.5751 0.666992 11.8184 0.666992H4.18177C3.4251 0.666992 3.04677 0.666992 2.72177 0.756159C2.38374 0.848872 2.06899 1.01163 1.79794 1.23387C1.52689 1.45611 1.3056 1.73286 1.14843 2.04616ZM13.2243 10.2503C13.8754 10.252 14.5158 10.0852 15.0834 9.76616V10.667C15.0834 13.8095 15.0834 15.3812 14.1068 16.357C13.3209 17.1437 12.1501 17.2962 10.0834 17.3262V14.417C10.0834 13.6378 10.0834 13.2487 9.91593 12.9587C9.80623 12.7687 9.64844 12.6109 9.45843 12.5012C9.16843 12.3337 8.77927 12.3337 8.0001 12.3337C7.22093 12.3337 6.83177 12.3337 6.54177 12.5012C6.35176 12.6109 6.19397 12.7687 6.08427 12.9587C5.91677 13.2487 5.91677 13.6378 5.91677 14.417V17.3262C3.8501 17.2962 2.67927 17.1428 1.89343 16.357C0.916767 15.3812 0.916767 13.8095 0.916767 10.667V9.76616C1.48461 10.0853 2.12538 10.2521 2.77677 10.2503C3.7398 10.2509 4.66698 9.88506 5.3701 9.22699C6.08653 9.88726 7.02582 10.2527 8.0001 10.2503C8.97438 10.2527 9.91367 9.88726 10.6301 9.22699C11.3332 9.88506 12.2612 10.2509 13.2243 10.2503Z" fill="currentColor"/>
</symbol>
<symbol id="telegram" viewBox="0 0 21 18" fill="none" xmlns="http://www.w3.org/2000/svg">
<path fill-rule="evenodd" clip-rule="evenodd" d="M18.7771 0.429965C19.0243 0.325956 19.2947 0.290084 19.5604 0.326082C19.8261 0.362081 20.0773 0.468633 20.2878 0.63465C20.4984 0.800667 20.6606 1.02008 20.7575 1.27005C20.8545 1.52002 20.8827 1.79141 20.8391 2.05597L18.5711 15.813C18.3511 17.14 16.8951 17.901 15.6781 17.24C14.6601 16.687 13.1481 15.835 11.7881 14.946C11.1081 14.501 9.02514 13.076 9.28114 12.062C9.50114 11.195 13.0011 7.93696 15.0011 5.99997C15.7861 5.23897 15.4281 4.79997 14.5011 5.49997C12.1991 7.23797 8.50314 9.88097 7.28114 10.625C6.20314 11.281 5.64114 11.393 4.96914 11.281C3.74314 11.077 2.60614 10.761 1.67814 10.376C0.424142 9.85597 0.485142 8.13197 1.67714 7.62997L18.7771 0.429965Z" fill="currentColor"/>
</symbol>

<symbol id="whatsapp" viewBox="0 0 20 20" fill="none" xmlns="http://www.w3.org/2000/svg">
<mask id="mask0_433_3895" style="mask-type:luminance" maskUnits="userSpaceOnUse" x="0" y="0" width="20" height="20">
<path d="M0.5 0.5H19.5V19.5H0.5V0.5Z" fill="white"/>
</mask>
<g mask="url(#mask0_433_3895)">
<path d="M11.79 0.638554L11.22 0.558554C9.50693 0.311211 7.75885 0.555909 6.17954 1.26412C4.60023 1.97233 3.25476 3.11487 2.3 4.55855C1.28416 5.93853 0.678585 7.57729 0.552979 9.28624C0.427373 10.9952 0.786836 12.7049 1.59 14.2186C1.6722 14.3703 1.72337 14.5368 1.74054 14.7085C1.75771 14.8802 1.74053 15.0536 1.69 15.2186C1.28 16.6286 0.9 18.0486 0.5 19.5386L1 19.3886C2.35 19.0286 3.7 18.6686 5.05 18.3386C5.33494 18.2793 5.63112 18.3072 5.9 18.4186C7.1112 19.0097 8.43482 19.3349 9.78205 19.3723C11.1293 19.4098 12.4689 19.1587 13.7111 18.6358C14.9533 18.1129 16.0692 17.3303 16.9841 16.3407C17.899 15.351 18.5915 14.1771 19.0153 12.8977C19.4392 11.6183 19.5844 10.2631 19.4414 8.92296C19.2983 7.58283 18.8703 6.28879 18.1859 5.12771C17.5016 3.96662 16.5769 2.96535 15.4737 2.19108C14.3706 1.41681 13.1146 0.887458 11.79 0.638554ZM14.31 13.7586C13.9466 14.0839 13.5034 14.3072 13.0256 14.4056C12.5478 14.5039 12.0524 14.4739 11.59 14.3186C9.49494 13.7277 7.67725 12.4132 6.46 10.6086C5.99517 9.97015 5.62158 9.27008 5.35 8.52855C5.20285 8.09833 5.17632 7.63602 5.27327 7.19179C5.37023 6.74755 5.58698 6.33835 5.9 6.00855C6.05239 5.81407 6.25981 5.66998 6.49526 5.59507C6.7307 5.52016 6.98325 5.51789 7.22 5.58855C7.42 5.63855 7.56 5.92855 7.74 6.14855C7.88667 6.56189 8.05667 6.96522 8.25 7.35855C8.39642 7.55906 8.45758 7.80935 8.42011 8.05479C8.38263 8.30023 8.24958 8.52087 8.05 8.66855C7.6 9.06855 7.67 9.39855 7.99 9.84855C8.69706 10.8681 9.67332 11.6712 10.81 12.1686C11.13 12.3086 11.37 12.3386 11.58 12.0086C11.67 11.8786 11.79 11.7686 11.89 11.6486C12.47 10.9186 12.29 10.9286 13.21 11.3286C13.5033 11.4519 13.7867 11.5952 14.06 11.7586C14.33 11.9186 14.74 12.0886 14.8 12.3286C14.8577 12.5889 14.8425 12.8602 14.7561 13.1125C14.6696 13.3647 14.5153 13.5883 14.31 13.7586Z" fill="currentColor"/>
</g>
</symbol>

<svg id="bell" width="18" height="20" viewBox="0 0 18 20" fill="currentColor" xmlns="http://www.w3.org/2000/svg">
<path d="M9 20C9.6193 20.0008 10.2235 19.8086 10.7285 19.4502C11.2335 19.0917 11.6143 18.5849 11.818 18H6.182C6.38566 18.5849 6.76648 19.0917 7.27151 19.4502C7.77654 19.8086 8.3807 20.0008 9 20ZM16 12.586V8C16 4.783 13.815 2.073 10.855 1.258C10.562 0.52 9.846 0 9 0C8.154 0 7.438 0.52 7.145 1.258C4.185 2.074 2 4.783 2 8V12.586L0.293 14.293C0.105451 14.4805 5.66374e-05 14.7348 0 15V16C0 16.2652 0.105357 16.5196 0.292893 16.7071C0.48043 16.8946 0.734784 17 1 17H17C17.2652 17 17.5196 16.8946 17.7071 16.7071C17.8946 16.5196 18 16.2652 18 16V15C17.9999 14.7348 17.8946 14.4805 17.707 14.293L16 12.586Z" fill="currentColor"/>
</svg>
<symbol id="support" width="18" height="22" viewBox="0 0 18 22" fill="currentColor" xmlns="http://www.w3.org/2000/svg">
<path d="M7.42802 14.2588L7.42288 14.2468C7.31941 14.2224 7.21652 14.1955 7.11431 14.1662L7.10659 14.1637C6.12884 13.8826 5.22587 13.3875 4.46316 12.7142C3.62435 11.9743 2.97929 11.0404 2.58423 9.99391C2.18916 8.94746 2.05608 7.82024 2.1966 6.71056C2.33712 5.60088 2.74696 4.54242 3.39039 3.62747C4.03383 2.71252 4.89132 1.96886 5.88809 1.46134C6.88487 0.953814 7.99066 0.697835 9.10906 0.715721C10.2275 0.733606 11.3245 1.02481 12.3045 1.56395C13.2846 2.10308 14.1179 2.87378 14.7317 3.80884C15.3456 4.74389 15.7213 5.81492 15.8263 6.92853C15.8597 7.28253 15.5692 7.57138 15.2134 7.57138C14.8586 7.57138 14.5749 7.28253 14.5337 6.92938C14.4204 5.95506 14.0519 5.02792 13.4654 4.24169C12.8789 3.45546 12.0952 2.838 11.1936 2.45174C10.2919 2.06547 9.30431 1.9241 8.33052 2.04189C7.35673 2.15969 6.4313 2.53249 5.64778 3.1226C4.86425 3.71271 4.25041 4.49922 3.8683 5.40263C3.48619 6.30603 3.34936 7.2943 3.47164 8.26754C3.59392 9.24078 3.97097 10.1645 4.56468 10.9453C5.1584 11.7261 5.94773 12.3363 6.85288 12.7142L6.88716 12.7288C7.05859 12.7991 7.23459 12.8611 7.41516 12.9148C7.56687 12.5482 7.84104 12.2456 8.19093 12.0585C8.54081 11.8715 8.94474 11.8116 9.33385 11.889C9.72296 11.9665 10.0732 12.1765 10.3247 12.4833C10.5763 12.7901 10.7137 13.1746 10.7134 13.5714C10.7138 13.9654 10.5785 14.3474 10.3302 14.6533C10.0819 14.9593 9.73588 15.1703 9.35025 15.251C8.96462 15.3317 8.56297 15.2771 8.21288 15.0964C7.86279 14.9157 7.58562 14.6199 7.42802 14.2588ZM6.58288 15.3491C5.0602 14.8755 3.71007 13.9653 2.70002 12.7314C2.07406 12.8047 1.49682 13.1053 1.07793 13.5762C0.659035 14.0471 0.427657 14.6554 0.427734 15.2857V15.8985C0.427734 19.0854 4.03631 21.2857 8.99916 21.2857C13.962 21.2857 17.5706 18.9645 17.5706 15.8985V15.2857C17.5706 14.6037 17.2997 13.9496 16.8174 13.4674C16.3352 12.9852 15.6811 12.7142 14.9992 12.7142H11.8749C12.0771 13.3914 12.0337 14.1182 11.7524 14.7665C11.4711 15.4149 10.97 15.9431 10.3374 16.2581C9.70476 16.5731 8.98123 16.6546 8.29436 16.4883C7.60749 16.322 7.00138 15.9186 6.58288 15.3491ZM13.2849 7.57138C13.2849 6.27538 12.7106 5.11396 11.8012 4.32796C11.3449 3.93432 10.8107 3.64135 10.2335 3.46815C9.65627 3.29496 9.04903 3.24544 8.4514 3.32283C7.85376 3.40022 7.27916 3.60277 6.76511 3.91727C6.25106 4.23178 5.80912 4.65115 5.46813 5.14802C5.12714 5.6449 4.89477 6.2081 4.78619 6.80086C4.67761 7.39363 4.69526 8.00262 4.83798 8.5881C4.98071 9.17358 5.24531 9.72238 5.6145 10.1987C5.9837 10.675 6.44919 11.068 6.98059 11.3522C7.53285 10.8499 8.25258 10.5714 8.99916 10.5714C9.74604 10.5712 10.4661 10.8497 11.0186 11.3522C11.7034 10.9864 12.2759 10.4414 12.6751 9.77552C13.0742 9.1096 13.285 8.34777 13.2849 7.57138Z" fill="currentColor"/>
</symbol>
<symbol id="file" width="50" height="50" viewBox="0 0 50 50" fill="currentColor" xmlns="http://www.w3.org/2000/svg">
  <path d="M24.9997 13.5413C24.9997 12.0366 24.7033 10.5466 24.1275 9.15643C23.5516 7.76624 22.7076 6.50308 21.6436 5.43908C20.5796 4.37507 19.3164 3.53106 17.9263 2.95522C16.5361 2.37939 15.0461 2.08301 13.5413 2.08301C12.0366 2.08301 10.5466 2.37939 9.15643 2.95522C7.76624 3.53106 6.50308 4.37507 5.43908 5.43908C4.37507 6.50308 3.53106 7.76624 2.95522 9.15643C2.37939 10.5466 2.08301 12.0366 2.08301 13.5413C2.08301 16.5803 3.29022 19.4948 5.43908 21.6436C7.58793 23.7925 10.5024 24.9997 13.5413 24.9997C16.5803 24.9997 19.4948 23.7925 21.6436 21.6436C23.7925 19.4948 24.9997 16.5803 24.9997 13.5413ZM14.583 14.583L14.5851 19.7997C14.5851 20.0759 14.4753 20.3409 14.28 20.5362C14.0846 20.7316 13.8197 20.8413 13.5434 20.8413C13.2672 20.8413 13.0022 20.7316 12.8069 20.5362C12.6115 20.3409 12.5018 20.0759 12.5018 19.7997V14.583H7.28301C7.00674 14.583 6.74179 14.4733 6.54644 14.2779C6.35109 14.0826 6.24134 13.8176 6.24134 13.5413C6.24134 13.2651 6.35109 13.0001 6.54644 12.8048C6.74179 12.6094 7.00674 12.4997 7.28301 12.4997H12.4997V7.29134C12.4997 7.01507 12.6094 6.75012 12.8048 6.55477C13.0001 6.35942 13.2651 6.24967 13.5413 6.24967C13.8176 6.24967 14.0826 6.35942 14.2779 6.55477C14.4733 6.75012 14.583 7.01507 14.583 7.29134V12.4997H19.7851C20.0614 12.4997 20.3263 12.6094 20.5217 12.8048C20.717 13.0001 20.8268 13.2651 20.8268 13.5413C20.8268 13.8176 20.717 14.0826 20.5217 14.2779C20.3263 14.4733 20.0614 14.583 19.7851 14.583H14.583ZM13.5413 27.083C15.9702 27.0833 18.3545 26.4303 20.4443 25.1925C22.5341 23.9546 24.2525 22.1775 25.4194 20.0473C26.5863 17.917 27.1588 15.5122 27.0769 13.0847C26.995 10.6572 26.2617 8.29638 24.9538 6.24967H36.9788C38.7746 6.24967 40.4968 6.96303 41.7665 8.23281C43.0363 9.50258 43.7497 11.2248 43.7497 13.0205V36.9788C43.7497 38.2851 43.3788 39.5059 42.7393 40.5413L28.283 26.3497L28.0163 26.1059C27.1741 25.3977 26.1096 25.0084 25.0092 25.0061C23.9088 25.0038 22.8427 25.3887 21.9976 26.0934L21.7163 26.3497L7.26009 40.5393C6.59815 39.4698 6.24819 38.2366 6.24967 36.9788V24.9538C8.42585 26.3479 10.9569 27.087 13.5413 27.083ZM31.7705 22.3955C32.8756 22.3955 33.9354 21.9565 34.7168 21.1751C35.4982 20.3937 35.9372 19.3339 35.9372 18.2288C35.9372 17.1238 35.4982 16.064 34.7168 15.2826C33.9354 14.5012 32.8756 14.0622 31.7705 14.0622C30.6654 14.0622 29.6056 14.5012 28.8242 15.2826C28.0428 16.064 27.6038 17.1238 27.6038 18.2288C27.6038 19.3339 28.0428 20.3937 28.8242 21.1751C29.6056 21.9565 30.6654 22.3955 31.7705 22.3955ZM24.0788 28.4309L23.9059 28.5768L9.47259 42.7476C10.5393 43.4044 11.7678 43.7513 13.0205 43.7497H36.9788C38.2809 43.7497 39.4955 43.383 40.5268 42.7476L26.0934 28.5788L25.8997 28.4163C25.6327 28.2282 25.3135 28.1284 24.9869 28.131C24.6603 28.1336 24.3427 28.2385 24.0788 28.4309Z" fill="currentColor"/>
</symbol>
<symbol  id="info" xmlns="http://www.w3.org/2000/svg"  viewBox="0 0 50 50" width="50px" height="50px" fill="currentColor">   
 <path d="M25,2C12.297,2,2,12.297,2,25s10.297,23,23,23s23-10.297,23-23S37.703,2,25,2z M25,11c1.657,0,3,1.343,3,3s-1.343,3-3,3 s-3-1.343-3-3S23.343,11,25,11z M29,38h-2h-4h-2v-2h2V23h-2v-2h2h4v2v13h2V38z" fill="currentColor"/>
</symbol>
</svg>