<svg width="172" height="26" viewBox="0 0 172 26" fill="none" xmlns="http://www.w3.org/2000/svg">
<mask id="path-1-outside-1_114_625" maskUnits="userSpaceOnUse" x="0" y="0.0996094" width="172" height="26" fill="black">
<rect fill="white" y="0.0996094" width="172" height="26"/>
<path d="M1 24.5829V1.41634H3.90343V22.0943H15.0489V24.5829H1Z"/>
<path d="M38.8412 12.9996C38.8412 15.443 38.3846 17.5545 37.4714 19.3342C36.5583 21.1139 35.3056 22.4864 33.7134 23.4517C32.1212 24.417 30.3026 24.8996 28.2577 24.8996C26.2128 24.8996 24.3943 24.417 22.8021 23.4517C21.2099 22.4864 19.9572 21.1139 19.044 19.3342C18.1308 17.5545 17.6742 15.443 17.6742 12.9996C17.6742 10.5563 18.1308 8.44473 19.044 6.66501C19.9572 4.88529 21.2099 3.51279 22.8021 2.54752C24.3943 1.58225 26.2128 1.09961 28.2577 1.09961C30.3026 1.09961 32.1212 1.58225 33.7134 2.54752C35.3056 3.51279 36.5583 4.88529 37.4714 6.66501C38.3846 8.44473 38.8412 10.5563 38.8412 12.9996ZM36.0314 12.9996C36.0314 10.9937 35.6841 9.30066 34.9895 7.92062C34.3026 6.54058 33.3699 5.49612 32.1914 4.78725C31.0207 4.07838 29.7094 3.72394 28.2577 3.72394C26.806 3.72394 25.4909 4.07838 24.3123 4.78725C23.1416 5.49612 22.2089 6.54058 21.5143 7.92062C20.8274 9.30066 20.484 10.9937 20.484 12.9996C20.484 15.0056 20.8274 16.6986 21.5143 18.0786C22.2089 19.4586 23.1416 20.5031 24.3123 21.212C25.4909 21.9208 26.806 22.2753 28.2577 22.2753C29.7094 22.2753 31.0207 21.9208 32.1914 21.212C33.3699 20.5031 34.3026 19.4586 34.9895 18.0786C35.6841 16.6986 36.0314 15.0056 36.0314 12.9996Z"/>
<path d="M60.1135 8.65588C59.8559 7.89422 59.5164 7.21175 59.095 6.60845C58.6813 5.99761 58.1857 5.47727 57.6081 5.04742C57.0384 4.61758 56.3906 4.28953 55.6647 4.0633C54.9389 3.83706 54.1427 3.72394 53.2764 3.72394C51.8559 3.72394 50.5642 4.07838 49.4013 4.78725C48.2383 5.49612 47.3134 6.54058 46.6266 7.92062C45.9398 9.30066 45.5964 10.9937 45.5964 12.9996C45.5964 15.0056 45.9437 16.6986 46.6383 18.0786C47.333 19.4586 48.2734 20.5031 49.4598 21.212C50.6461 21.9208 51.9808 22.2753 53.4637 22.2753C54.8374 22.2753 56.0472 21.9925 57.093 21.4269C58.1467 20.8538 58.9662 20.0469 59.5516 19.0062C60.1447 17.9579 60.4413 16.725 60.4413 15.3072L61.3311 15.4882H54.1193V12.9996H63.2511V15.4882C63.2511 17.3961 62.8296 19.0552 61.9867 20.4654C61.1516 21.8756 59.9964 22.9691 58.5213 23.7458C57.054 24.515 55.3681 24.8996 53.4637 24.8996C51.3408 24.8996 49.4754 24.417 47.8676 23.4517C46.2676 22.4864 45.0188 21.1139 44.1212 19.3342C43.2315 17.5545 42.7866 15.443 42.7866 12.9996C42.7866 11.1671 43.0402 9.51935 43.5476 8.05636C44.0627 6.58583 44.7885 5.33399 45.7251 4.30085C46.6617 3.2677 47.77 2.47588 49.05 1.92537C50.33 1.37486 51.7388 1.09961 53.2764 1.09961C54.5408 1.09961 55.7193 1.28437 56.812 1.65389C57.9125 2.01586 58.892 2.53244 59.7506 3.2036C60.6169 3.86723 61.3389 4.66282 61.9165 5.59039C62.494 6.51041 62.8921 7.53225 63.1106 8.65588H60.1135Z"/>
<path d="M88.4542 12.9996C88.4542 15.443 87.9976 17.5545 87.0844 19.3342C86.1712 21.1139 84.9185 22.4864 83.3263 23.4517C81.7341 24.417 79.9156 24.8996 77.8707 24.8996C75.8258 24.8996 74.0072 24.417 72.415 23.4517C70.8228 22.4864 69.5702 21.1139 68.657 19.3342C67.7438 17.5545 67.2872 15.443 67.2872 12.9996C67.2872 10.5563 67.7438 8.44473 68.657 6.66501C69.5702 4.88529 70.8228 3.51279 72.415 2.54752C74.0072 1.58225 75.8258 1.09961 77.8707 1.09961C79.9156 1.09961 81.7341 1.58225 83.3263 2.54752C84.9185 3.51279 86.1712 4.88529 87.0844 6.66501C87.9976 8.44473 88.4542 10.5563 88.4542 12.9996ZM85.6444 12.9996C85.6444 10.9937 85.2971 9.30066 84.6024 7.92062C83.9156 6.54058 82.9829 5.49612 81.8044 4.78725C80.6336 4.07838 79.3224 3.72394 77.8707 3.72394C76.419 3.72394 75.1038 4.07838 73.9253 4.78725C72.7546 5.49612 71.8219 6.54058 71.1272 7.92062C70.4404 9.30066 70.097 10.9937 70.097 12.9996C70.097 15.0056 70.4404 16.6986 71.1272 18.0786C71.8219 19.4586 72.7546 20.5031 73.9253 21.212C75.1038 21.9208 76.419 22.2753 77.8707 22.2753C79.3224 22.2753 80.6336 21.9208 81.8044 21.212C82.9829 20.5031 83.9156 19.4586 84.6024 18.0786C85.2971 16.6986 85.6444 15.0056 85.6444 12.9996Z"/>
<path d="M91.0269 3.90493V1.41634H109.009V3.90493H101.47V24.5829H98.5664V3.90493H91.0269Z"/>
<path d="M111.43 1.41634H114.755L121.405 12.2304H121.686L128.335 1.41634H131.66L122.997 15.0357V24.5829H120.093V15.0357L111.43 1.41634Z"/>
<path d="M135.415 24.5829V1.41634H143.517C145.398 1.41634 146.935 1.74438 148.13 2.40046C149.332 3.04901 150.221 3.92756 150.799 5.03611C151.376 6.14467 151.665 7.38142 151.665 8.74638C151.665 10.1113 151.376 11.3519 150.799 12.468C150.229 13.5841 149.347 14.4739 148.153 15.1375C146.959 15.7936 145.429 16.1217 143.564 16.1217H137.757V13.6331H143.47C144.758 13.6331 145.792 13.4181 146.573 12.9883C147.353 12.5584 147.919 11.9778 148.27 11.2463C148.629 10.5072 148.809 9.67394 148.809 8.74638C148.809 7.81881 148.629 6.98928 148.27 6.25778C147.919 5.52629 147.349 4.95316 146.561 4.53839C145.773 4.11609 144.727 3.90493 143.423 3.90493H138.319V24.5829H135.415Z"/>
<path d="M156.342 24.5829V1.41634H170.813V3.90493H159.246V11.7327H170.063V14.2213H159.246V22.0943H171V24.5829H156.342Z"/>
</mask>
<path d="M1 24.5829V1.41634H3.90343V22.0943H15.0489V24.5829H1Z" fill="#161616"/>
<path d="M38.8412 12.9996C38.8412 15.443 38.3846 17.5545 37.4714 19.3342C36.5583 21.1139 35.3056 22.4864 33.7134 23.4517C32.1212 24.417 30.3026 24.8996 28.2577 24.8996C26.2128 24.8996 24.3943 24.417 22.8021 23.4517C21.2099 22.4864 19.9572 21.1139 19.044 19.3342C18.1308 17.5545 17.6742 15.443 17.6742 12.9996C17.6742 10.5563 18.1308 8.44473 19.044 6.66501C19.9572 4.88529 21.2099 3.51279 22.8021 2.54752C24.3943 1.58225 26.2128 1.09961 28.2577 1.09961C30.3026 1.09961 32.1212 1.58225 33.7134 2.54752C35.3056 3.51279 36.5583 4.88529 37.4714 6.66501C38.3846 8.44473 38.8412 10.5563 38.8412 12.9996ZM36.0314 12.9996C36.0314 10.9937 35.6841 9.30066 34.9895 7.92062C34.3026 6.54058 33.3699 5.49612 32.1914 4.78725C31.0207 4.07838 29.7094 3.72394 28.2577 3.72394C26.806 3.72394 25.4909 4.07838 24.3123 4.78725C23.1416 5.49612 22.2089 6.54058 21.5143 7.92062C20.8274 9.30066 20.484 10.9937 20.484 12.9996C20.484 15.0056 20.8274 16.6986 21.5143 18.0786C22.2089 19.4586 23.1416 20.5031 24.3123 21.212C25.4909 21.9208 26.806 22.2753 28.2577 22.2753C29.7094 22.2753 31.0207 21.9208 32.1914 21.212C33.3699 20.5031 34.3026 19.4586 34.9895 18.0786C35.6841 16.6986 36.0314 15.0056 36.0314 12.9996Z" fill="#161616"/>
<path d="M60.1135 8.65588C59.8559 7.89422 59.5164 7.21175 59.095 6.60845C58.6813 5.99761 58.1857 5.47727 57.6081 5.04742C57.0384 4.61758 56.3906 4.28953 55.6647 4.0633C54.9389 3.83706 54.1427 3.72394 53.2764 3.72394C51.8559 3.72394 50.5642 4.07838 49.4013 4.78725C48.2383 5.49612 47.3134 6.54058 46.6266 7.92062C45.9398 9.30066 45.5964 10.9937 45.5964 12.9996C45.5964 15.0056 45.9437 16.6986 46.6383 18.0786C47.333 19.4586 48.2734 20.5031 49.4598 21.212C50.6461 21.9208 51.9808 22.2753 53.4637 22.2753C54.8374 22.2753 56.0472 21.9925 57.093 21.4269C58.1467 20.8538 58.9662 20.0469 59.5516 19.0062C60.1447 17.9579 60.4413 16.725 60.4413 15.3072L61.3311 15.4882H54.1193V12.9996H63.2511V15.4882C63.2511 17.3961 62.8296 19.0552 61.9867 20.4654C61.1516 21.8756 59.9964 22.9691 58.5213 23.7458C57.054 24.515 55.3681 24.8996 53.4637 24.8996C51.3408 24.8996 49.4754 24.417 47.8676 23.4517C46.2676 22.4864 45.0188 21.1139 44.1212 19.3342C43.2315 17.5545 42.7866 15.443 42.7866 12.9996C42.7866 11.1671 43.0402 9.51935 43.5476 8.05636C44.0627 6.58583 44.7885 5.33399 45.7251 4.30085C46.6617 3.2677 47.77 2.47588 49.05 1.92537C50.33 1.37486 51.7388 1.09961 53.2764 1.09961C54.5408 1.09961 55.7193 1.28437 56.812 1.65389C57.9125 2.01586 58.892 2.53244 59.7506 3.2036C60.6169 3.86723 61.3389 4.66282 61.9165 5.59039C62.494 6.51041 62.8921 7.53225 63.1106 8.65588H60.1135Z" fill="#161616"/>
<path d="M88.4542 12.9996C88.4542 15.443 87.9976 17.5545 87.0844 19.3342C86.1712 21.1139 84.9185 22.4864 83.3263 23.4517C81.7341 24.417 79.9156 24.8996 77.8707 24.8996C75.8258 24.8996 74.0072 24.417 72.415 23.4517C70.8228 22.4864 69.5702 21.1139 68.657 19.3342C67.7438 17.5545 67.2872 15.443 67.2872 12.9996C67.2872 10.5563 67.7438 8.44473 68.657 6.66501C69.5702 4.88529 70.8228 3.51279 72.415 2.54752C74.0072 1.58225 75.8258 1.09961 77.8707 1.09961C79.9156 1.09961 81.7341 1.58225 83.3263 2.54752C84.9185 3.51279 86.1712 4.88529 87.0844 6.66501C87.9976 8.44473 88.4542 10.5563 88.4542 12.9996ZM85.6444 12.9996C85.6444 10.9937 85.2971 9.30066 84.6024 7.92062C83.9156 6.54058 82.9829 5.49612 81.8044 4.78725C80.6336 4.07838 79.3224 3.72394 77.8707 3.72394C76.419 3.72394 75.1038 4.07838 73.9253 4.78725C72.7546 5.49612 71.8219 6.54058 71.1272 7.92062C70.4404 9.30066 70.097 10.9937 70.097 12.9996C70.097 15.0056 70.4404 16.6986 71.1272 18.0786C71.8219 19.4586 72.7546 20.5031 73.9253 21.212C75.1038 21.9208 76.419 22.2753 77.8707 22.2753C79.3224 22.2753 80.6336 21.9208 81.8044 21.212C82.9829 20.5031 83.9156 19.4586 84.6024 18.0786C85.2971 16.6986 85.6444 15.0056 85.6444 12.9996Z" fill="#161616"/>
<path d="M91.0269 3.90493V1.41634H109.009V3.90493H101.47V24.5829H98.5664V3.90493H91.0269Z" fill="#161616"/>
<path d="M111.43 1.41634H114.755L121.405 12.2304H121.686L128.335 1.41634H131.66L122.997 15.0357V24.5829H120.093V15.0357L111.43 1.41634Z" fill="#161616"/>
<path d="M135.415 24.5829V1.41634H143.517C145.398 1.41634 146.935 1.74438 148.13 2.40046C149.332 3.04901 150.221 3.92756 150.799 5.03611C151.376 6.14467 151.665 7.38142 151.665 8.74638C151.665 10.1113 151.376 11.3519 150.799 12.468C150.229 13.5841 149.347 14.4739 148.153 15.1375C146.959 15.7936 145.429 16.1217 143.564 16.1217H137.757V13.6331H143.47C144.758 13.6331 145.792 13.4181 146.573 12.9883C147.353 12.5584 147.919 11.9778 148.27 11.2463C148.629 10.5072 148.809 9.67394 148.809 8.74638C148.809 7.81881 148.629 6.98928 148.27 6.25778C147.919 5.52629 147.349 4.95316 146.561 4.53839C145.773 4.11609 144.727 3.90493 143.423 3.90493H138.319V24.5829H135.415Z" fill="#161616"/>
<path d="M156.342 24.5829V1.41634H170.813V3.90493H159.246V11.7327H170.063V14.2213H159.246V22.0943H171V24.5829H156.342Z" fill="#161616"/>
<path d="M1 24.5829V1.41634H3.90343V22.0943H15.0489V24.5829H1Z" stroke="#161616" stroke-width="2" mask="url(#path-1-outside-1_114_625)"/>
<path d="M38.8412 12.9996C38.8412 15.443 38.3846 17.5545 37.4714 19.3342C36.5583 21.1139 35.3056 22.4864 33.7134 23.4517C32.1212 24.417 30.3026 24.8996 28.2577 24.8996C26.2128 24.8996 24.3943 24.417 22.8021 23.4517C21.2099 22.4864 19.9572 21.1139 19.044 19.3342C18.1308 17.5545 17.6742 15.443 17.6742 12.9996C17.6742 10.5563 18.1308 8.44473 19.044 6.66501C19.9572 4.88529 21.2099 3.51279 22.8021 2.54752C24.3943 1.58225 26.2128 1.09961 28.2577 1.09961C30.3026 1.09961 32.1212 1.58225 33.7134 2.54752C35.3056 3.51279 36.5583 4.88529 37.4714 6.66501C38.3846 8.44473 38.8412 10.5563 38.8412 12.9996ZM36.0314 12.9996C36.0314 10.9937 35.6841 9.30066 34.9895 7.92062C34.3026 6.54058 33.3699 5.49612 32.1914 4.78725C31.0207 4.07838 29.7094 3.72394 28.2577 3.72394C26.806 3.72394 25.4909 4.07838 24.3123 4.78725C23.1416 5.49612 22.2089 6.54058 21.5143 7.92062C20.8274 9.30066 20.484 10.9937 20.484 12.9996C20.484 15.0056 20.8274 16.6986 21.5143 18.0786C22.2089 19.4586 23.1416 20.5031 24.3123 21.212C25.4909 21.9208 26.806 22.2753 28.2577 22.2753C29.7094 22.2753 31.0207 21.9208 32.1914 21.212C33.3699 20.5031 34.3026 19.4586 34.9895 18.0786C35.6841 16.6986 36.0314 15.0056 36.0314 12.9996Z" stroke="#161616" stroke-width="2" mask="url(#path-1-outside-1_114_625)"/>
<path d="M60.1135 8.65588C59.8559 7.89422 59.5164 7.21175 59.095 6.60845C58.6813 5.99761 58.1857 5.47727 57.6081 5.04742C57.0384 4.61758 56.3906 4.28953 55.6647 4.0633C54.9389 3.83706 54.1427 3.72394 53.2764 3.72394C51.8559 3.72394 50.5642 4.07838 49.4013 4.78725C48.2383 5.49612 47.3134 6.54058 46.6266 7.92062C45.9398 9.30066 45.5964 10.9937 45.5964 12.9996C45.5964 15.0056 45.9437 16.6986 46.6383 18.0786C47.333 19.4586 48.2734 20.5031 49.4598 21.212C50.6461 21.9208 51.9808 22.2753 53.4637 22.2753C54.8374 22.2753 56.0472 21.9925 57.093 21.4269C58.1467 20.8538 58.9662 20.0469 59.5516 19.0062C60.1447 17.9579 60.4413 16.725 60.4413 15.3072L61.3311 15.4882H54.1193V12.9996H63.2511V15.4882C63.2511 17.3961 62.8296 19.0552 61.9867 20.4654C61.1516 21.8756 59.9964 22.9691 58.5213 23.7458C57.054 24.515 55.3681 24.8996 53.4637 24.8996C51.3408 24.8996 49.4754 24.417 47.8676 23.4517C46.2676 22.4864 45.0188 21.1139 44.1212 19.3342C43.2315 17.5545 42.7866 15.443 42.7866 12.9996C42.7866 11.1671 43.0402 9.51935 43.5476 8.05636C44.0627 6.58583 44.7885 5.33399 45.7251 4.30085C46.6617 3.2677 47.77 2.47588 49.05 1.92537C50.33 1.37486 51.7388 1.09961 53.2764 1.09961C54.5408 1.09961 55.7193 1.28437 56.812 1.65389C57.9125 2.01586 58.892 2.53244 59.7506 3.2036C60.6169 3.86723 61.3389 4.66282 61.9165 5.59039C62.494 6.51041 62.8921 7.53225 63.1106 8.65588H60.1135Z" stroke="#161616" stroke-width="2" mask="url(#path-1-outside-1_114_625)"/>
<path d="M88.4542 12.9996C88.4542 15.443 87.9976 17.5545 87.0844 19.3342C86.1712 21.1139 84.9185 22.4864 83.3263 23.4517C81.7341 24.417 79.9156 24.8996 77.8707 24.8996C75.8258 24.8996 74.0072 24.417 72.415 23.4517C70.8228 22.4864 69.5702 21.1139 68.657 19.3342C67.7438 17.5545 67.2872 15.443 67.2872 12.9996C67.2872 10.5563 67.7438 8.44473 68.657 6.66501C69.5702 4.88529 70.8228 3.51279 72.415 2.54752C74.0072 1.58225 75.8258 1.09961 77.8707 1.09961C79.9156 1.09961 81.7341 1.58225 83.3263 2.54752C84.9185 3.51279 86.1712 4.88529 87.0844 6.66501C87.9976 8.44473 88.4542 10.5563 88.4542 12.9996ZM85.6444 12.9996C85.6444 10.9937 85.2971 9.30066 84.6024 7.92062C83.9156 6.54058 82.9829 5.49612 81.8044 4.78725C80.6336 4.07838 79.3224 3.72394 77.8707 3.72394C76.419 3.72394 75.1038 4.07838 73.9253 4.78725C72.7546 5.49612 71.8219 6.54058 71.1272 7.92062C70.4404 9.30066 70.097 10.9937 70.097 12.9996C70.097 15.0056 70.4404 16.6986 71.1272 18.0786C71.8219 19.4586 72.7546 20.5031 73.9253 21.212C75.1038 21.9208 76.419 22.2753 77.8707 22.2753C79.3224 22.2753 80.6336 21.9208 81.8044 21.212C82.9829 20.5031 83.9156 19.4586 84.6024 18.0786C85.2971 16.6986 85.6444 15.0056 85.6444 12.9996Z" stroke="#161616" stroke-width="2" mask="url(#path-1-outside-1_114_625)"/>
<path d="M91.0269 3.90493V1.41634H109.009V3.90493H101.47V24.5829H98.5664V3.90493H91.0269Z" stroke="#161616" stroke-width="2" mask="url(#path-1-outside-1_114_625)"/>
<path d="M111.43 1.41634H114.755L121.405 12.2304H121.686L128.335 1.41634H131.66L122.997 15.0357V24.5829H120.093V15.0357L111.43 1.41634Z" stroke="#161616" stroke-width="2" mask="url(#path-1-outside-1_114_625)"/>
<path d="M135.415 24.5829V1.41634H143.517C145.398 1.41634 146.935 1.74438 148.13 2.40046C149.332 3.04901 150.221 3.92756 150.799 5.03611C151.376 6.14467 151.665 7.38142 151.665 8.74638C151.665 10.1113 151.376 11.3519 150.799 12.468C150.229 13.5841 149.347 14.4739 148.153 15.1375C146.959 15.7936 145.429 16.1217 143.564 16.1217H137.757V13.6331H143.47C144.758 13.6331 145.792 13.4181 146.573 12.9883C147.353 12.5584 147.919 11.9778 148.27 11.2463C148.629 10.5072 148.809 9.67394 148.809 8.74638C148.809 7.81881 148.629 6.98928 148.27 6.25778C147.919 5.52629 147.349 4.95316 146.561 4.53839C145.773 4.11609 144.727 3.90493 143.423 3.90493H138.319V24.5829H135.415Z" stroke="#161616" stroke-width="2" mask="url(#path-1-outside-1_114_625)"/>
<path d="M156.342 24.5829V1.41634H170.813V3.90493H159.246V11.7327H170.063V14.2213H159.246V22.0943H171V24.5829H156.342Z" stroke="#161616" stroke-width="2" mask="url(#path-1-outside-1_114_625)"/>
</svg>
